<svg id="Calque_1" data-name="Calque 1" xmlns="http://www.w3.org/2000/svg" viewBox="0 0 599.05 340.04"><title>icon-car</title><path d="M429.9,185c10.68-.74,21.09-1.45,31.5-2.19,18.61-1.34,37.22-2.77,55.81-4.43,14-1.25,28.1-2.58,42.11-4.3,5.73-.71,11.45-1.47,17.12-2.57,1.12-.22,1.28,0,1.18,1.08-.68,7-1.53,14-3.82,20.76-.43,1.26,1.84,3.69,3.52,3.77a9.16,9.16,0,0,0,4.35-1.14c5.57-2.65,10-6.78,14.26-11.12.24-.24.44-.52.79-.94,1.37,2.75,1.64,5.6,2.06,8.39,1.61,10.85,1.13,21.75.59,32.65a4.27,4.27,0,0,1-.54,2c-2.22,3.77-4.32,7.61-6.64,11.31a6.24,6.24,0,0,0-.76,5.65c1.1,3.25,2.31,6.48,3.54,9.68.69,1.78,2.08,2,3.07.41a53.86,53.86,0,0,0,4.05-8.07c-1.52,1.8-3.1,3.55-4.52,5.43-.86,1.13-1.33.9-2-.12-2.06-3.22-2.84-6.87-3.64-10.51-.15-.66.32-1.09.62-1.57,2.73-4.41,5.63-8.72,8.08-13.3.26-.49.58-1,1.14-1,1.23,0,1.17-.82,1.14-1.67-.47-11.14-1.33-22.24-2.82-33.28a21.68,21.68,0,0,0-2.2-7.7c-.55-1,.16-1.67.66-2.12.7-.63,1.07.36,1.39.77,2.81,3.63,3.81,7.95,4.48,12.35,1.34,8.82.79,17.69.43,26.54-.58,14.16-1.69,28.29-2.87,42.41a12.15,12.15,0,0,1-1,3.34,44.51,44.51,0,0,1-8,13.86,17.45,17.45,0,0,1-7.13,4.89,88.69,88.69,0,0,0-14.67,7.37,3.7,3.7,0,0,0-1.36,1.75,42,42,0,0,1-7.8,11.32,18,18,0,0,1-6.67,4.38c-12.26,4.41-24.83,6.9-37.91,5.65-8.3-.79-15.84-3.41-21.47-10-.63-.75-1.32-.59-2.05-.5-9.72,1.22-19.43,2.48-29.16,3.65-19.62,2.35-39.19,5.19-58.87,7-8.48.78-17,1.3-25.49.19-3-.39-5.72-1.26-7.67-4-.8-1.11-2.58-.86-3.95-.85-5.95.06-11.9.18-17.84.31-3.57.08-3.57.1-4.74,3.56-2.74,8.18-6.66,15.66-12.9,21.74-5.42,5.28-11.77,8.43-19.47,8.76q-10,.43-20.07,1c-9,.54-16.59-3.08-23.14-9-8.17-7.4-13.4-16.71-16.84-27-6.49-19.5-7-39.14-.42-58.73,3.08-9.1,7.87-17.16,15.6-23.17a27.67,27.67,0,0,1,16.81-6c5.94-.13,11.87-.49,18.21-.76-5.16-4.79-10.3-8.92-16.28-11.91a29.2,29.2,0,0,0-16.59-3.25,36.34,36.34,0,0,0-15.94,5.84c-3.53,2.29-5.67,5.82-7.39,9.57-3.29,7.19-4.75,14.86-5.58,22.65a153.29,153.29,0,0,0,.95,41.15c.33,2.07-.83,1.21-1.66,1l-83-24.61Q129,252.7,99.43,243.89c-1.3-.39-1.66-.06-2.05,1.1-2.44,7.25-5.83,14-11.19,19.57-4.77,5-10.46,7.81-17.5,7.9-5.77.07-11.55.23-17.3.75-9.36.85-16.52-3-22.46-9.79-6.87-7.78-10.84-17.06-13.52-27a102.1,102.1,0,0,1-3.1-35.37,4.5,4.5,0,0,0-.72-2.95,26.17,26.17,0,0,1-4.2-13.67c-.22-8.57-.64-17.13-1.12-25.69a24,24,0,0,1,2.54-11.48,30.28,30.28,0,0,0,2.35-9.78c.75-7.13,1.42-14.28,2.05-21.42a36.5,36.5,0,0,1,2.32-9.84C18.29,99,19.3,91.37,19.88,83.7a9.62,9.62,0,0,1,5-7.92,33.91,33.91,0,0,1,12.87-4.22,3.12,3.12,0,0,0,2.18-1.23c11.94-14.94,23.6-30.1,34.68-45.7a1.76,1.76,0,0,0,.19-2.32,5.72,5.72,0,0,1-.68-2.14,3.25,3.25,0,0,1,2.69-4,178.09,178.09,0,0,1,17.79-2.73c34.54-4.12,69.22-6.2,104-7.17,13.29-.37,26.58-.75,39.87-.3,18.52.62,37.05,1.22,55.53,2.8a578.49,578.49,0,0,1,59.1,7.82q9.29,1.77,18.46,4a19.48,19.48,0,0,1,4.73,2.23c17.38,9.57,33.33,21.21,48.69,33.71,8.32,6.77,16.36,13.88,24.2,21.21.33.31.68.61,1,.89.52-.24.34-.65.4-1,.64-3.26,2.92-5,6.18-4.36,4.6.91,9,2.4,12.71,5.48a5.73,5.73,0,0,1,2.22,4.47A25.76,25.76,0,0,1,469.31,96a1.74,1.74,0,0,0,.51,2.27c2.74,2.79,5.46,5.59,8.08,8.49a6.27,6.27,0,0,0,3.56,1.92,390.65,390.65,0,0,1,56,16.45,128.69,128.69,0,0,1,24.88,12.27,24.46,24.46,0,0,1,3.66,2.69c2.4,2.35,5.33,3.61,8.41,4.76a89.17,89.17,0,0,1,14.53,6.85,2,2,0,0,1,1,2.84c-1.54,4.38-4.52,7.68-7.75,10.86a11.13,11.13,0,0,1-7,3.34c-18,1.94-36,4.08-54.06,6.11-17.79,2-35.59,3.85-53.43,5.37-13.19,1.13-26.37,2.59-39.63,2.18-11.32-.34-22.53-2-33.71-3.77a458.7,458.7,0,0,1-50.84-10.45,79.61,79.61,0,0,1-14.09-5,15.82,15.82,0,0,0,2.53,5.43c8.73,12.18,16.81,24.8,25.4,37.08,3.5,5,4.47,10.83,5.6,16.59A98.22,98.22,0,0,1,364.53,245c-.34,9.2-.06,18.43-.11,27.64,0,1.06.4,1.38,1.36,1.58q13.61,2.87,27.19,5.83a4.59,4.59,0,0,0,2.24-.07c3.49-1,6.78-2.48,9.14-5.24,4-4.64,7.66-9.52,11.59-14.45-4.2-1.32-8.23-2.6-12.27-3.86l-18.86-5.89a17.7,17.7,0,0,0-4.09-.84c-3.43-.22-5.92-2.68-6.58-6.64-.91-5.47-1.58-11-2.45-16.43a121.32,121.32,0,0,0-3.15-14.7,18.94,18.94,0,0,0-2.5-5.72c3.81.87,7.38,1.55,10.87,2.51,11.49,3.16,23.26,3.38,35,3.49,6.76.06,13.53.09,20.29.15a4.87,4.87,0,0,0,2.19-.49c2.62-1.27,5.22-2.59,7.91-3.72,1.24-.53,1.18-1,.62-2C439,199,435.21,191.68,429.9,185Zm50.73-70.46a8,8,0,0,0-.54-.77c-14.45-14.89-28.52-30.16-44.31-43.71S404,42.85,386.89,30.74A4.09,4.09,0,0,0,384,29.9c-2.9.27-5.81.46-8.72.64-20.43,1.24-40.88,2-61.32,2.77Q270.08,35,226.21,36.55c-1.55.06-1.61.35-.9,1.62,3.71,6.66,7.35,13.37,11,20.06q18.91,34.47,37.82,69a2.36,2.36,0,0,0,2.36,1.55c5,0,10,.15,15,.16,21.34.06,42.67-.34,64-1.31,16.72-.75,33.42-1.82,50.09-3.3C425.84,122.5,446,120.21,466,117,470.85,116.28,475.64,115.43,480.63,114.58ZM233.1,107.8c.24-3.19.48-6.37.74-9.56a3.26,3.26,0,0,0-.61-1.79Q219.15,69,205.08,41.59A2.44,2.44,0,0,0,203,40.13Q185.07,38,167.2,35.73c-1-.13-1.37.16-1.62,1-.69,2.35-1.5,4.66-2.11,7-4.26,16.61-7.11,33.5-9.87,50.41-.24,1.43-1,3.2-.43,4.23s2.69,1,4.14,1.36c8.87,2.2,17.77,4.32,26.64,6.55,1.23.3,1.4,0,1.32-1.1-.1-1.4.07-2.82-.15-4.19-.45-2.78,1-4.41,3.15-5.67a14.65,14.65,0,0,1,3.19-1.4c5.95-1.85,11.85-3.91,17.9-5.37,4.64-1.13,9.3-.85,12.93,3.1,1.69,1.85,3.58,3.51,5.23,5.4C230.22,100.17,232.94,103.28,233.1,107.8ZM83.93,73.71c-.29,2.17,1.14,3.35,2.61,4.43a34.74,34.74,0,0,0,8.21,4.24c13.09,5.08,26.73,8.17,40.38,11.24,1.65.37,2-.1,2.37-1.58,2.12-9.61,4.23-19.24,7-28.69,2.71-9.16,6-18.14,9.27-27.11.56-1.53.26-1.76-1.24-1.89q-15-1.27-30-2.74c-7-.68-14.07-1.07-21-2.09-2.4-.35-3.91.63-4.72,2.91-.36,1-.7,2.1-1.09,3.13-2.86,7.52-5.62,15.06-8,22.74A82.55,82.55,0,0,0,83.93,73.71Zm343.8,223.44c1,0,1.6,0,2.22,0,8.26.45,16.38-.93,24.53-2q23.07-2.88,46.14-5.81l45.27-5.7,38.51-4.85a2,2,0,0,0,1.52-.68c2.65-3.34,2.7-3.51,0-6.78-1.48-1.8-3-3.56-4.61-5.26a19.44,19.44,0,0,0-6.36-4.54,11.72,11.72,0,0,0-6.62-1c-11.54,1.63-23.08,3.24-34.64,4.73-14.33,1.85-28.68,3.62-43.09,4.77-10.06.81-20.09,1.74-29.93,4.14C451.5,276.47,443,280,436.27,287A87.92,87.92,0,0,0,427.73,297.15ZM438.28,187.6l1.19,1.82c3.52,5.21,7.14,10.37,10.51,15.68a3.42,3.42,0,0,0,3.73,1.88c12.38-1,24.76-2,37.16-2.69,26.23-1.47,52.21-5,78.15-8.92a2.21,2.21,0,0,0,2.06-1.72c1.91-5.9,2.69-12,3.8-18.11.18-1-.34-.9-1-.82-2.6.33-5.2.64-7.8,1-13.06,1.71-26.12,3.45-39.19,5.14-3.13.4-6.28.65-9.42,1a19.55,19.55,0,0,1,7.15,3.25c3.35,2.74,3.36,6.63,0,9.41-5.19,4.33-15.83,4.29-20.95-.08-3.18-2.72-3.19-6.39-.05-9.18a21.7,21.7,0,0,1,3.76-2.34C484.48,184.38,461.71,187.72,438.28,187.6ZM320.1,288.34c-.07-10.75-1.72-20-5.47-28.92-3.3-7.8-7.77-14.75-14.8-19.75-9.33-6.65-19.82-6-28.33,1.64a36.27,36.27,0,0,0-9.36,13.76c-6.36,15.88-6.23,32-1.13,48.1,2.76,8.75,7.07,16.64,14.13,22.72,6.59,5.67,14.06,8.26,22.67,5.3,5.8-2,10-6.07,13.36-11.08C317.81,310.14,319.94,298.93,320.1,288.34ZM55.79,171.16a6.39,6.39,0,0,0-3.1-3.65c-6.56-3.39-12.73-2.71-18.46,1.8-5.31,4.18-8.56,9.84-10.73,16.08-6.05,17.39-5.6,34.8.49,52.09,2.36,6.72,5.81,12.85,11.21,17.67,8.21,7.33,18.35,7.25,25.37-1.17,9.51-11.4,14.14-24.48,10.3-39.58a1.71,1.71,0,0,0-1.62-1.46C64,212,58.7,211,53.41,210.16c-1.47-.24-1.53-.58-.73-1.77,3.7-5.45,7.31-10.95,10.94-16.45.3-.46.9-.89.66-1.53a50.75,50.75,0,0,0-2.52-6.55L48.9,203.25c0-2.58,0-4.82,0-7.06.22-9,.51-17.94.71-26.91,0-1.33.37-1.47,1.48-.95A29.51,29.51,0,0,1,55.79,171.16Zm172.37,75.06.18-.25c-2.39-2.13-4.79-4.25-7.15-6.41a21.56,21.56,0,0,0-5.49-3.95C182.19,220.31,148.28,206,114.21,192c-6.79-2.78-13.54-5.72-20.59-7.8-6.47-1.91-12.45-.46-17.91,3.34-.71.49-1.66,1.06-1.54,2s1.18.82,1.85,1.08c4.61,1.81,9.23,3.61,13.87,5.35,39.2,14.62,78.57,28.78,117.91,43Zm251.61,13.24h-.47c0,2.73.09,5.47,0,8.21-.06,1.3.23,1.54,1.51,1.38,9.82-1.22,19.66-2.38,29.49-3.55q21.09-2.52,42.18-5c1-.12,1.58-.28,1.63-1.51.23-5.47.55-10.94.9-16.4.07-1-.28-1.2-1.18-1.06-1.14.19-2.31.29-3.47.42q-34.56,3.85-69.14,7.69c-1.16.13-1.44.56-1.43,1.62C479.8,254,479.77,256.72,479.77,259.46Zm-27.28-9.8c1,0,1.54,0,2.1,0,6.34-.49,12.68-.92,19-1.51,19.85-1.84,39.67-4,59.46-6.48,13-1.6,26-3.15,39-5.5,1-.17,2.51,0,2.66-.8.22-1.21-1.06-2.07-2-2.82a8.31,8.31,0,0,0-3-1.41,17,17,0,0,0-6.42-.5l-40.81,4.83c-19.34,2.29-38.67,4.66-58,6.77C459.22,242.8,455.81,245.62,452.49,249.66Zm-219.55-4.24a2.79,2.79,0,0,0,.6-2c.44-9,.93-17.93,1.29-26.9.71-18.13,2-36.19,5.23-54.09,1.82-10,3.52-20.09,8-29.38.05-.12,0-.3-.09-.62-.26.43-.46.72-.61,1a90.93,90.93,0,0,0-7.25,20.34,290.76,290.76,0,0,0-6.41,44.43c-.51,8.67-.73,17.35-.79,26C232.91,231.15,232.94,238.08,232.94,245.42ZM139.05,103.69l-.4-.12c-.9,1.89-1.83,3.75-2.69,5.66-3.75,8.31-6.88,16.74-7.28,26.06-.68,15.61-.72,31.22-.34,46.83A116.51,116.51,0,0,0,129,194.5a14.08,14.08,0,0,0,.19-2.05c.41-16.65,1.09-33.31,1.15-50a88,88,0,0,1,7-34.49C137.93,106.57,138.47,105.12,139.05,103.69ZM62.28,76.36a29.59,29.59,0,0,1-8.76,4.28,15.8,15.8,0,0,0-8.22,6.21A26.38,26.38,0,0,0,40.64,100c-.35,4.64-.68,9.29-.93,14-.42,7.77-.76,15.55-1.15,23.59a2.79,2.79,0,0,0,.61-1.71c1.63-12.13,2.42-24.34,3.64-36.51.81-8.06,4-14.94,12.35-18.16A17.22,17.22,0,0,0,62.28,76.36ZM48.05,107.64a32.56,32.56,0,0,1,5.57,4.43c1.05,1.09,2.66,1.91,4.13,1.38,2.43-.89,5-1.14,7.43-1.83,1.07-.29,2.19-.59,2.27-2s-1.14-4-2.22-4.45c-.09.58.34,1,.52,1.42.82,2.18.17,3.33-2.14,3.69a8.67,8.67,0,0,1-3.13-.06Zm87.79,31.22a2,2,0,0,0,1.5,1,12.91,12.91,0,0,1,6.39,3.36,4.91,4.91,0,0,0,4.73,1.2c2.13-.73,4.3-.78,6.43-1.23a2.84,2.84,0,0,0,2.51-2.92c-.05-2.15-3.48-5.75-5.67-6.12-.58-.1-1-.07-1.19.62-.45,1.35.37,1.24,1.25,1.24a4.74,4.74,0,0,1,4.59,4.1c.12,1.76-.6,2.52-2.35,2.37a31.19,31.19,0,0,1-3.45-.51C145.76,141,140.94,140,135.84,138.86Zm461,108.94c2.13-1.88,3.47-3.83,3.18-6.73a47.81,47.81,0,0,1,.17-6.09,4.56,4.56,0,0,0-.23-2.41l-4.84,7.67a1.37,1.37,0,0,0-.31,1.13A33.4,33.4,0,0,0,596.82,247.8ZM50,100.32l2.77,1.32c-.71.46-1.56-.11-2,.74a2.78,2.78,0,0,0,.63.57c3.43,1.57,6.89,2.86,10.55.61.24-.15.65-.27.48-.59a1.46,1.46,0,0,0-.82-.58A57.59,57.59,0,0,0,50,100.32Zm85,30.26c2.09.28,3.86.49,5.61.76.82.12,2,0,2.17,1,.21,1.2-1.21.95-1.85,1.43-.3.22-.87.2-.84.72s.47.48.8.57a22.72,22.72,0,0,0,6.89.95c-.13-.89-.55-1.73.37-2.4,1.34-1,.33-1.27-.51-1.43-2.85-.55-5.71-1-8.57-1.54C137.83,130.39,136.6,129.94,135,130.58Z" transform="translate(-6.24 -5.78)"/><path d="M338.32,170.59c15.56,5.77,31.63,7.48,47.58,9.75q19.31,2.74,38.52,6a2.62,2.62,0,0,1,1.94,1.53q4.65,7.81,9.35,15.59c1.38,2.31.3,4.65-2.45,5.08a41.27,41.27,0,0,1-7.86.18c-14.57-.48-29.13-1.14-43.61-2.85a87.14,87.14,0,0,1-20.1-5.18,2.94,2.94,0,0,1-1.4-1C353,190.09,345.77,180.46,338.32,170.59Zm93,33.86c-2.77-4.61-5.38-8.95-8-13.3a2.14,2.14,0,0,0-1.77-.93c-4.25-.71-8.51-1.41-12.76-2.14-12.53-2.13-25.15-3.61-37.71-5.54-7-1.08-14-2.29-21.12-3.87a5.3,5.3,0,0,0,.38.74q6.27,8.31,12.53,16.62a3.11,3.11,0,0,0,1.52,1.11,86.57,86.57,0,0,0,21.4,5c9.52.8,19.07,1.41,28.61,2A159.13,159.13,0,0,0,431.28,204.45Z" transform="translate(-6.24 -5.78)"/><path d="M411.3,262.53c-4.09,4.82-8.12,9.56-13.71,12.62a11.64,11.64,0,0,1-6.43,1.34,88.68,88.68,0,0,1-17.72-3c-.57-.16-1.12-.35-1.66-.55-4-1.5-4.2-1.72-4.2-6,0-4,0-7.94,0-11.9,0-2.23.93-3.08,3-2.57q20,4.84,40.07,9.76A3.39,3.39,0,0,1,411.3,262.53Zm-8,2.52c-.18-.15-.24-.26-.33-.29q-15-3.67-30-7.36c-1-.24-1.05.22-1.05,1,0,2.62.15,5.25,0,7.86-.14,1.84.63,2.57,2.25,3,4.38,1.25,8.92,1.69,13.35,2.66C394.48,273.47,399,269.74,403.26,265.05Z" transform="translate(-6.24 -5.78)"/><path d="M591.9,156.15A25.34,25.34,0,0,1,596,168.91c.24,3.08.42,6.16.68,9.23A2.66,2.66,0,0,1,596,180c-4.59,6.36-10.93,10.73-17.21,15.15-1.38,1-2.51.4-2.58-1.28a5.2,5.2,0,0,1,.34-2.22c2.3-5.47,2.78-11.29,3.26-17.08.24-2.81.89-4.93,3.3-6.75a26.81,26.81,0,0,0,7.68-10C591.1,157.27,591.21,156.6,591.9,156.15Zm-12,34.86c5.29-3.47,9.89-7.17,13.5-12a2.47,2.47,0,0,0,.56-1.75,113.7,113.7,0,0,0-1.35-13,3.62,3.62,0,0,0-.89-2.24,35.92,35.92,0,0,1-8.28,9.31,1.71,1.71,0,0,0-.61,1.36A93,93,0,0,1,579.85,191Z" transform="translate(-6.24 -5.78)"/><path d="M291.32,294.53c5.25,9.43,10.3,18.53,15.39,27.61a1.16,1.16,0,0,1-.21,1.65c-4.13,4.06-8.91,6.71-14.82,7-.87,0-1.6.14-1.56-1.16q.54-17.12,1-34.22A8.46,8.46,0,0,1,291.32,294.53Z" transform="translate(-6.24 -5.78)"/><path d="M286.09,272.91c-1.13-2-2.11-3.79-3.1-5.55q-6-10.83-12.08-21.65c-.49-.87-.59-1.42.23-2.21,4.1-3.91,8.79-6.46,14.56-6.78,1.13-.06,1.67.12,1.63,1.46-.37,11.35-.67,22.7-1,34.06A3.92,3.92,0,0,1,286.09,272.91Z" transform="translate(-6.24 -5.78)"/><path d="M282.37,278.45c-7.8-1.39-15.19-2.71-22.59-4-.8-.14-1.18-.41-1.08-1.36.91-7.95,2.92-15.56,7-22.52.14-.24.31-.46.62-.9Z" transform="translate(-6.24 -5.78)"/><path d="M295.08,289.06l13,2.3c3.21.57,6.41,1.17,9.63,1.72.73.13,1.15.29,1.05,1.2-.88,8.08-2.93,15.79-7.13,22.83a6.66,6.66,0,0,1-.53.68Z" transform="translate(-6.24 -5.78)"/><path d="M282,286.93,264.72,309.5a41.08,41.08,0,0,1-3.09-7.69,71.08,71.08,0,0,1-3.18-18c-.05-.84-.09-1.36,1-1.15,7.33,1.34,14.67,2.64,22,4C281.59,286.63,281.68,286.73,282,286.93Z" transform="translate(-6.24 -5.78)"/><path d="M291.69,273.74c.32-11.58.65-23.1.91-34.62,0-1.36.47-1.37,1.53-.94,6.26,2.58,10.83,7.12,14.6,12.58a.88.88,0,0,1,0,1.23Q300.37,262.84,292,273.7S291.92,273.72,291.69,273.74Z" transform="translate(-6.24 -5.78)"/><path d="M285.36,293.77c0,4.62.06,9,0,13.46-.13,7-.37,14-.51,21,0,1.28-.24,1.64-1.57,1.09-6.23-2.56-10.74-7.07-14.5-12.47-.29-.42-.48-.77-.11-1.25Z" transform="translate(-6.24 -5.78)"/><path d="M312.78,257.94a65.44,65.44,0,0,1,5.36,17.6,72.25,72.25,0,0,1,.84,8.17c0,.8.07,1.34-1.07,1.12-7.44-1.37-14.89-2.68-22.61-4.06Z" transform="translate(-6.24 -5.78)"/><path d="M293.16,287.17c-1,.68-2.28-1-2.61.77a16.49,16.49,0,0,1-.36,2.75l-1.51-2.5c-.86.42-1.09,1.38-1.91,1.95-.54-1.62,1.18-4.51-3-4.07,2.33-2,2.44-3.86.62-5.59.76-1,2.15.78,2.5-.75a12.48,12.48,0,0,0,0-2.81c.84.09.82.75,1.1,1.13s.41,1,.94,1.29c.53-.64,1.07-1.27,1.76-2.08.46,1.85-1.11,4.66,3.15,4.18C291.12,283.47,291.49,285.34,293.16,287.17Z" transform="translate(-6.24 -5.78)"/><path d="M40.7,207.83l-10.92-1.92c-2.7-.48-5.4-.95-8.09-1.45-.66-.12-1.33-.13-1.23-1.24a61.71,61.71,0,0,1,6.17-22.45,6,6,0,0,1,.49-.63C31.65,189.37,36.11,198.46,40.7,207.83Z" transform="translate(-6.24 -5.78)"/><path d="M43.79,202.09,37.5,189.31Q34.24,182.65,31,176c-.23-.49-.72-.94-.17-1.57,3.41-3.95,7.37-6.92,12.8-7.39,1.14-.1,1.53.26,1.49,1.44-.36,11.17-.67,22.34-1,33.51Z" transform="translate(-6.24 -5.78)"/><path d="M51.54,217.93l16,2.84c.17,0,.34.09.51.12,3.87.72,3.9.72,3.38,4.7a59.55,59.55,0,0,1-5,17.74c-.34.74-.72,1.45-1.23,2.45Z" transform="translate(-6.24 -5.78)"/><path d="M48.43,223.59c2.66,5.41,5.29,10.76,7.92,16.13,1.64,3.34,3.26,6.7,4.92,10,.33.67.54,1.19-.06,1.88-3.21,3.65-7,6.36-11.9,7.06-1.4.2-2.21.14-2.14-1.77.37-10.65.6-21.31.9-32C48.08,224.54,47.88,224,48.43,223.59Z" transform="translate(-6.24 -5.78)"/><path d="M43.54,222.81q-.45,17-.88,33.89c0,1.24-.51,1.16-1.39.78a25.16,25.16,0,0,1-9.84-8.19c-3.12-4.09-3.11-4.1-.26-8.39l12.06-18.19Z" transform="translate(-6.24 -5.78)"/><path d="M25.35,238.34A55,55,0,0,1,22.58,230a77.91,77.91,0,0,1-2.36-16.22c-.06-1.19.2-1.46,1.42-1.22,5.84,1.11,11.69,2.12,17.54,3.17.55.1,1.5-.05.76,1q-7.17,10.76-14.32,21.51S25.51,238.3,25.35,238.34Z" transform="translate(-6.24 -5.78)"/><path d="M50,216.29c-2.23-.11-2.23-.11-2.51,3.59l-1.42-2.61c-.76.39-.9,1.22-1.5,1.78-.46-.48-.23-1.08-.21-1.6.06-1.15.22-2.27-1.48-2.27-.54,0-.77-.45-.34-.82,1.9-1.65.59-3.21-.27-5,3.57.93,1.8-1.94,2.58-3.27l1.37,2.49,1.47-1.94c.43.63.19,1.21.18,1.75,0,1.07-.17,2.17,1.46,2.13.33,0,.87.23.5.6C48.12,212.85,48.8,214.55,50,216.29Z" transform="translate(-6.24 -5.78)"/></svg>