<svg id="Calque_1" data-name="Calque 1" xmlns="http://www.w3.org/2000/svg" viewBox="0 0 597.08 422.7"><title>icon-moto</title><path d="M393.09,106.48c-1.24-5.54-3.5-10-2.61-15.4.83-5-5.64-11.28-10.72-12.2a53.89,53.89,0,0,0-18.4-.22c-1.08.17-2.15.22-3,1.26-3.93,4.74-9.93,5-15.2,6.73-1.27.42-3,0-3.39-1.29-1.18-4.25-4-4-7.25-3.11a1.73,1.73,0,0,1-1.41-.17c-4.2-4.18-8-.9-11.86.64-5,2-9.88,4.19-14.77,6.39-3,1.36-7,1.33-6.2,6.92.43,3-5.66,5-8.22,2.72-2.18-2-3.81-2.38-6.36-1-2.75,1.48-5,.16-6.79-2-4.89-6.11-3.31-12.22,3.84-15.24Q299,72.77,317.15,65c1.31-.55,3.33-.71,3.22-2.5-.31-4.95,3.37-5.69,6.71-6.91a11.43,11.43,0,0,0,2.26-.89c3.87-2.49,11.64-1.45,11.81-6.26.41-11.49-7.78-19.6-17.2-21.6-6.22-1.31-10.28,1.81-14.56,4.55-12.17,7.77-25.64,7.77-39.17,7-6.61-.4-9.93-4.58-10.51-11.31-.21-2.43-.4-4.87-.42-7.31C259.24,10.42,260,9.34,269,8A165.44,165.44,0,0,1,298.6,6.07c8.39.25,13.61,5.68,17.49,12.4a6.78,6.78,0,0,0,6.24,3.7c12.95.76,16.66,3.65,20.76,15.88,1.19,3.55,2.32,7.13,3.8,10.56.77,1.79,1.87,4.55,4.5,3.21,10.15-5.21,18.53.25,27.22,4.08,2.38,1,4.65,2.44,7.11,3.18,8.63,2.59,12.36,9.67,15.64,17,1.48,3.31,2.89,3.73,6.16,2.29,9.69-4.29,19.91-5.32,30.7-3.71-3.76-4.52-5.76-9.21-3-14.84,1.46-2.93,3.55-5.48,6.66-6,4-.7,5.56-3.14,7.11-6.36,3-6.28,6.54-12.32,7.05-19.53.24-3.4,2.41-4.56,5.68-4.61,3.69-.06,7.2.33,10.14,2.7,3.53,2.85,3,16.6-.62,19.31-2.21,1.64-10.49.76-13.3-1.5a12.38,12.38,0,0,1-1.7-2.54c-1.09,2-1.75,3.24-2.39,4.47-1.95,3.77-4.92,6.74,1.38,10.51,3.87,2.31,6.74,7.25,10.55,10.55,3,2.63,2.22,6.32,2.23,9.6,0,1.9-1.93,1.95-3.74,2-4.25.08-5.28,1.7-3.66,6.18,1.57,4.32,3.34,5.14,7.59,4.14,26.1-6.15,34.29,14.69,32.66,32.59C499.84,132.71,496,142.81,486,149.6c-1.47,1-1.42,2.41-.73,4.34,3.38-3.89,6.56-8,11.6-9.09,4.79-1,9.67-1.41,13.64,2.82,5.68,6,6.22,18.52.86,24.86-5.5,6.5-12.64,6.34-22.69-.81,3.05,9.66,6,18.9,8.88,28.16.65,2.09,1.87,2.74,4,2.52,29.25-3.15,53.32,7.79,74.56,27a227.77,227.77,0,0,1,22,23.44c4.22,5.08,3.5,7.53-2.63,9.82-1.52.56-3.06,1.05-4.49,1.54,17.57,36,18.22,72.74,4.17,109.43-12.62,32.94-37.71,50.52-72.79,54.33-25.94,2.82-49.48-2.47-70.08-18.94-18.15-14.51-29.81-33.3-36.24-55.48-.32-1.09-.57-2.2-.88-3.3a8.64,8.64,0,0,0-.46-1l-15.27,6.19a2.1,2.1,0,0,0-.87.44c-10.45,12.46-26.64,14.11-40,21.13-4.3,2.27-8.93,3.91-13.43,5.77a25.67,25.67,0,0,1-20,.27c-7.7-3.06-15.43-6.08-22.9-9.65-11.21-5.35-23.43-6.17-35.3-8.49-15.88-3.1-31.86-5.67-47.77-8.66-3.23-.6-5.67-.21-7.69,2.49-2.84,3.81-6.35,4.55-11.15,3.6-14.29-2.85-28.71-5.06-43.06-7.58-1.67-.29-3-.53-4.26,1.09-6.14,7.89-14.4,12.76-23.87,15.21-23.74,6.15-46.19,3.59-66-11.94-19.55-15.36-30.1-35.89-32.81-60.47-2.16-19.59.31-38.58,8.48-56.66,6.53-14.47,16.72-25.45,31.38-32.35-3.37-.25-9.21,1.71-13.91,4.39a103.05,103.05,0,0,0-18.63,14.13c-8,7.34-17.28,7.09-26.95,5.32A3.54,3.54,0,0,1,8,229c.59-2.6-.2-6.56,3.84-7,7.12-.79,9.48-6.79,13.2-11.35.87-1.06,0-2.08-.13-3.15-1.08-8.44-1.64-16.92,1.57-25.06,3.58-9.06,15.65-15.7,26.68-12.75,7.8,2.08,13-1.87,19.1-4.22,2.66-1,2-4.56,1.85-6.46-1.21-13.63,7.52-18.71,18.31-22.08,19.83-6.19,40.12-7.24,60.67-5.2a114.63,114.63,0,0,0,12.14.73c8.86-.05,15.83,5.27,23.61,8.2,3.8,1.43,8.12,2.66,10.41,6.81.71,1.29,2.4.6,3.65.68,8.4.54,16,3.15,22,9.23,11.89,12.06,28.69,14,44.09,8.72,9.19-3.13,13-9.63,18.38-15.55,21.2-23.19,46.05-40,77.67-45.33A66.73,66.73,0,0,1,393.09,106.48ZM565.88,381.31l-.14.09,1.83-.83c.27,1.4,1,2.08,2.24,1,3.51-3.11,8.44-4.94,9.93-9.9.83-2.75,3.43.42,4.14-1.68,1.63.95.8,2.23.34,3.33-.26.62-.61,1.12-.35,1.62,7.64-3.79,8.07-11.93,11.32-20-.34,5.87-3.06,9.86-2.8,14.65,7.89-7.54,12.42-39.67,8.55-64-2.85,10-1.54,20.32-2.25,30.5,0-8.05.57-16.13-1-24.09-1.41,8.36.42,16.93-2.08,25.23,2.37-11.18.62-22.11-1.66-33-.37,3.88,1.36,7.74.07,11.72-1.48-1.2.38-3.37-2.06-4.58.48,6.8.94,13.29-.1,19.89-.22-4.9-.43-9.67-.65-14.43-.44,6-1.39,11.79-2.22,17.24-.89-8.76.74-18.06-2.1-27.05.22,7.54,1.35,15.07,0,22.65-.45-7.9,0-15.91-2.88-23.51a107,107,0,0,1,.14,30c-1.38-9,.8-18.57-2.19-27.78,1.57,7.94.17,15.85.09,23.79a79.69,79.69,0,0,0-2-21.23c-.55,3.33.44,6.72-.59,10.17-1.63-1.89.11-4.3-1.91-6.91.55,12.82-.08,24.69-3,36.37s-8.3,22.49-12.94,33.68l3.31-1.89C565.69,382.37,565.82,381.87,565.88,381.31ZM84.16,252.16a14.21,14.21,0,0,0,5.91-4.86c10.22-4.57,19.8-4.35,28.22,3.91,1.11,1.09,2,1.29,3.37.37,1.68-1.14,3.56-2,5.73-3.19-1.77-1.38-2.37-3.68-4.9-3.72l.16.15c-6.47-9.36-21.42-12.79-29.49-6.38l.14-.11a11.51,11.51,0,0,0-7.16,4.17,4.8,4.8,0,0,1-.26.57c-2,.24-3.44,1.43-4.71,3.23,3.41.81,4.22,2.93,3.09,6-2.65.77-4.7.21-5.41-3-2.62,3.24-2.7,3.69-1.82,3.85,4.29.76,2.42,3.71,2.34,6-2.56.27-4.42-.65-5.35-3.47-.46,2-2.25,3.08-2,5.27,4-1,4.29,1.86,4.68,4.83,1-2.36,2.57-4.23,2.54-6.73C81.75,257.36,82.73,254.6,84.16,252.16ZM56.45,304.47l1.26,6.27c1.16,7.85,5.58,14.14,10.22,20.14,6.9,8.93,15.59,15.37,27.13,17.05-8.93-3.1-17.14-7.21-22.09-15.9l5.67,4.51c1.3-6.18.83-6.92-5-7.65-.89-.11-2.07-.37-1.79-1.08,1.11-2.82.69-3.91-2.58-3.19-.9.2-1.16-1-1-1.82.91-4.79-2.21-6.94-5.73-8.83,1-1.93.4-3.65-.34-5.54-1-2.48-2.42-4.93-2.26-9.12l3.7,7.06c-.8-3.42.3-8.13-5.15-8.49-.8-.05-1-2,0-2.28,3.34-1,1-1.71-.06-2.32-1.67-.93-3.43-1.7-5.29-2.6a57.58,57.58,0,0,0,.58,6C54.31,299.36,53.48,302.59,56.45,304.47Zm449.87-155c-4.46-3.18-6.38.36-8.46,3.26-2.45,3.42-.92,4.12,2.47,3.52,0,0,0,1.2.79,1.41.81-3.37,1.72-6.68,5.29-8.29-.56,1.77,1,2.63,1.73,3.81,3.54,6,2.14,12.82-4.39,17.68,3.07-4.84-1.7-6.11-3-8.85-.07-.16-3.65-1.5-4.18.65-.81,3.29,1.35,5.81,3.62,8,2,1.92,4,2.57,6.51.83C513.74,166.57,513.54,154.29,506.32,149.44ZM310.66,79.16c8.63-3.09,17.21-6.32,26-9,4.47-1.36,8.68-3.58,13-5.51,1.21-.55,2.91-.93,2.08-3.07s-2.22-.51-3.2-.36a14.49,14.49,0,0,0-5.06,1.61c-10.59,6.3-22.22,10.42-33.2,15.88a63.19,63.19,0,0,0-12.8,5.9A24.59,24.59,0,0,0,290,90.8c-1,1.24-1.27,2.71.09,3.93,1,.88,2.12,1.51,3.54.76,1.58-.83,1.35-2.23.82-3.38-1-2.15.27-3,1.67-4.21C300.5,84.23,305.94,82.3,310.66,79.16ZM502.24,326.78c-1.47-1.29-1.06-3.13-1.32-4.77-.22.78-.23,2-.67,2.19-1.35.54-.78-.87-1.07-1.42-.44-.88-2.12.85-2.05-1-1.52.27-.5,1.16-.37,1.73.77,3.39,2.76,6.95-.1,10.07-1.72,1.86-1.31,2.86.25,4.21,6.48,5.63,6.44,9,10.61-1.59a13.1,13.1,0,0,0,.39-1.5l-2.2,1.56c-1.07-2.22,1.48-6.37-3.34-6.47C502.43,328.78,503.88,327.71,502.24,326.78ZM241.76,254.05c2.75-3.93,1.36-8.69,2.18-13.39,2,1.68,2.78,3.56,5.46,4.06,3.41.64,3.46.51,3.16-2.87-.45-5.14.13-10.37.43-15.56.07-1.07,1.08-2.32-.28-3s-1.8,1-2.65,1.6c-3.42,2.63-4.46,6.92-7.25,11.69-.17-3.6-.26-5.59-.37-8.06-.25,5.21-.79,9.93-.59,14.62.15,3.68-1.8,7.35,0,11a2,2,0,0,0-1.66,2.1c-.77,13.34-5.41,15.91-19.9,18.35-5.93,1-12.16.16-18.26.16,9,3,18,2.64,26.86-.1,4.61-1.42,9.2-3.1,10.67-8.23C240.73,262.43,241.07,258.19,241.76,254.05Zm-45.47-35.66c3.52-.18,7.05-.29,10.56-.56a142.64,142.64,0,0,0,43.38-10.08c9.34-3.83,18.16-8.81,25.61-15.85-5.84,2.67-11.23,6.64-17.26,8.27a128.25,128.25,0,0,0-21.25,8.17c-11.66,5.5-24.33,5.83-36.5,8.62-1.54.36-3.69-1.11-4.52,1.46-4.87-2.5-10.18-3.83-15.41-5.15-3.68-.92-7-3.26-11-2.85-4.47-1.53-5.24-5.93-7.13-9.39-3.66-6.7-8.88-12.35-12.26-19.28-2.26-4.64-.42-5.93,3.42-7.22,3.66-1.23,7.38-2.63,5.75-8-.72-2.36,0-4.59,3.35-6.33-8.88,1.3-17.27,10.76-16,17.25,1.92,9.65,5.44,18.76,12.18,26.1,4.09,4.46,7.87,9.56,14.05,11.61,3,.87,6,2.14,9.11,2.51C187,218.27,191.65,218.2,196.29,218.39ZM436,157.56c.09,1.88-2.17,5.1,2.13,4.73,11.57-1,22.81,2.58,34.36,2.08,5.27-.22,10.65-1,15.93.7,2.34.76,2.07-1.51,2.2-2.77.16-1.44,0-3.36-2.13-2.83-7.93,1.93-15.67-.68-23.51-.79a106.51,106.51,0,0,1-16.43-1.56ZM556.09,414.74c8.9-3.35,15.47-9.55,20.55-17.62l-12.9,10.52c-2.32-.08-3.9,1.55-5.67,2.6a91.6,91.6,0,0,1-43.88,13.23,92.56,92.56,0,0,1-51.64-13.33c-1.2-.71-2.24-2.1-3.91-1C470.77,423.83,521.35,436.08,556.09,414.74ZM440.4,306.38c-2,3.88-1.74,8.12-1.95,12.29a93.23,93.23,0,0,0,4.63,34.21c-2.85-1.94-2.36-4.92-4.29-6.94,3.52,19.95,21.73,43.56,35,47.81-17-14.09-26.62-26.5-26.67-35.52,4.77,10.08,10.17,18.71,18.61,24.95-4-5.12-8.91-9.62-10.77-16.2,1.69,2,3.38,3.92,5.08,5.86.92,1.68,2.53,4.29,3.84,3.46,2-1.27,4.35-3.1,5.35-5.17.66-1.37-1.82-3.2-3.48-4.25-2,2.23-2.19,5.85-5.87,6.11.36-1.54-.33-3.26.89-4.64,4.6-5.2.32-8.5-2.41-12.59-.78,1-1.26,1.66-1.73,2.28-.73,1-1.27,2.77-2.85,1.93-2-1.05-.69-2.59.17-3.66,1.55-1.92,1.34-3.77.48-5.87-1.05-2.55-1.95-5.16-2.81-7.78-.3-.93-.26-2.06-1.49-2.22-1.47-.18-3.5-.31-3.71-1.71-.38-2.45,1.72-2.08,3.35-1.94.13,0,.49-.56.42-.67-2.07-3.51,1.61-9.1-4.25-11.32-1.86-.71-1.89-2.63.24-2.92s2.25-1,2.32-2.69c.09-2.23-1.19-2.24-2.76-2.22a1.27,1.27,0,0,1-1.38-1.11,1.52,1.52,0,0,1,1.17-1.84c6.41-1.52,3.16-7.2,4.46-10.85.68-1.88-4.39.19-3.61-3,.59-2.39,3.59-.21,4.94-2.14,4-5.65,4-13.6-.41-20.11-5.26,9-9.45,18.2-10.63,28.57ZM297.82,368.66c-4.93-2.06-7.88-5.88-8.19-11.05-.28-4.65-2.79-5.1-6.53-5.52-22.15-2.5-44.14-6.18-66.1-10-3.12-.55-4.58-.28-5.31,2.69-.89,3.55,1.54,3.91,4.09,4.36,20.52,3.64,41,7.28,61.55,11.07,1.85.34,5.4-.07,5.15,2.19-.33,3.11-3.62.94-5.58,1.33-.31.06-1-.05-.69.81l21.73,4c-.06,1.69,1.51,1.4,2.38,1.88,6.07,3.36,13.3,2.15,19.6,5.27,8.66,4.29,17.06,5.26,26.72.07,12.53-6.73,26.2-11.39,39.09-17.59a16.53,16.53,0,0,0,8.49-9.38c2.52-6.65,5.47-13.26,7.53-19.92,3.74-12.08,9.25-23.86,8.68-37.17a60.85,60.85,0,0,1,3.36-21.07c1.39-4.27,1.78-7.27-4.07-7.56-2.75-.13-4.77-3.24-8.18-1.9-3.1,1.21-3.42,1.52-1.32,4.05,1,1.23,2.43,2.59,2.59,4,.31,2.78.53,5.87,1.25,6.45,5.09,4,5.85,6,2.18,11.11-6.08,8.51-9.35,18.44-13.21,27.81-3.15,7.66-5,16.26-7.38,24.48a5.18,5.18,0,0,0,.09,4.15c2.23,4.58,1.11,7.27-3.65,9.06-2.75,1-5.77,1.45-8.46,2.62a257.07,257.07,0,0,1-30.06,11.35c-8,2.35-16.63,4-24.09-1.67-2.37-1.81-3.7-1.38-5.94-.53C308.44,366,303.67,369.23,297.82,368.66Zm80.81-192.48c6-.09,11.26-2.83,16.85-4.38,6.25-1.73,11-11.81,7.28-16.83-2.1-2.84-1.76-5.62-2.81-8.24-.23,2.43-.47,5-.66,7-5.65-12.71-4.08-29.56-20.47-36.25-.11-1.35,2-1,1.43-2-16-3.11-30.56,3.43-44.61,8-15.27,4.93-28,16.45-40.34,27.14-2.08,1.79-3.69,4.1-5.59,6.11-.45.48-1.38,1.76-1.75.84-1.6-4-2.95-.33-3.45.29-3.41,4.15-6.79,8.35-9,13.32-2.78,6.25-1.29,11,4.56,14.57a22.79,22.79,0,0,0,6.79,2.62,207.28,207.28,0,0,0,62.89,4.8c8.85-.69,17.76-1.7,26.58-4.14a1.68,1.68,0,0,0-2-.8,198.87,198.87,0,0,1-27.93,3.39c-20.56.93-40.87-.57-60.83-5.83-4.75-1.25-8.7-3.3-9.52-9.48,5.19,6.76,10.15,9,17,7.9-.27-1-2,.21-2-1.67,11.44,1.51,22.77,4.32,34.38,2.8-4.42-1.23-9.22.27-14.79-2.23,13.86-.6,26.41.66,38.88-1.2,9.84-1.46,19.8-2.19,29.19-5.83ZM469.77,225c-.81,1.51-3.24.52-2.93,2.77.39,2.87-.79,5.75.3,8.66,3.36,9,5.27,18.52,10.4,26.82a4.51,4.51,0,0,0,3.45,2.33c1.6,0,1.71-1.72,1.82-3,.33-3.71.66-7.43.77-11.16.24-8.33,3.14-11.73,11.4-12.8a28.77,28.77,0,0,1,6.81-.2,68,68,0,0,1,41.07,19.43,19.62,19.62,0,0,0,15.4,5.88,301,301,0,0,0,37.09-4.21c4-.76,3.83-2.18,1.75-4.73-.82-1-1.45-2.42-2.51-3-7.78-3.85-12.74-10.88-19-16.49-12.31-11.1-25.83-20.15-41.57-25.85-10.57-3.83-21.54-4.33-32.5-5.14-5-.37-15.94,2.7-18.84,4.94,11.43-1,22.27-.49,32.92,3.62,7.45,2.88,11.17,10.18,18,13.52a6.36,6.36,0,0,1,3.28,3.84c-8.64-5.87-15.91-12.1-25.36-14.24,2.81,1.81,5.88,3.14,8.78,4.78a60.78,60.78,0,0,1,8.57,5.57c2.41,2,5.51,3.47,7,7.56-22.85-20.51-43.73-23.53-69.27-9.71ZM144.16,194.58c-23.14-12-46.29-21.07-72.76-17.12,9.75-3.11,19.61-4.81,29.87-3.91a131.9,131.9,0,0,0-15.88-.6,8.85,8.85,0,0,0-3.35.37c-2.16.93-4.63.09-5.35-1.13-3.39-5.77-6.5-1.66-9.69-.12-2.48,1.2-4.86,2.6-7.36,3.75-1.09.49-2.72,1.56-1.64,2.1,3.91,1.94,3.91,8.83,10.07,7.74,3.82-.68,4.37,2.1,4.31,4.83s-.12,6-4.19,5.76c-2.46-.13-3.75.73-4.9,2.9a19.69,19.69,0,0,1-4.36,5.21c-7.68,6.9-15.79,4.43-18.4-5.52-.31-1.2.09-2.61-.94-3.61-3.93.69-1.34,4.3-2.86,6.19-3.95,5-7.58,10.16-11.51,15.13-3.07,3.9-5.77,8.47-12.08,7.39-2.12-.36-2.41,1.7-2.71,3.34-.28,1.46-.58,3,.74,4.05.92.73,2.66,1.07,3.1.12,1.32-2.86,3.73-1.5,5.66-1.9,7.75-1.62,15.84-1.23,22.33-7.81C46,218,49.53,213.49,54.39,211c19.52-10.11,39.42-10.5,59.83-2.48,6.22,2.44,11.12,6.89,18,8.67,8.63,2.22,16.36,7.89,23.14,14.08,2.13,1.94,3.86,1.17,5.76.5,2.24-.79.75-2.5.49-3.71a54.9,54.9,0,0,0-4.57-12.84c-2-4.13-4.12-8.23-6.13-12.24,3.29-1.87,3.75,2.47,7.27,2.64-3.1-2.9-3.67-7.25-6.79-7.81-3.39-.6-5-2.71-7.09-4.6-1.86-1.67-3.38-3.79-7.2-4.95Zm42.93,74c-4.66-1.72-7-4.84-8.73-8.37-1.65-3.34-.27-5,3.42-4.91,15,.37,29.95,2.18,45,1.09,7.14-.52,7.78.63,6.76,7.33,2.64-4.74,4.79-9.82,4.71-15.24s-.6-10.65.19-16c.72-4.91-2.88-8.62-7.89-8.65a32.83,32.83,0,0,0-5.87.06c-3.82.7-6.82-1.49-10.71-2.67,9.57-1.56,18.58-3.16,27.73.33-1.09-1.91-2.53-3.45-4.55-3.46-4.55,0-9.14-.65-13.64.34-6.06,1.34-12.19,2-18.3,3.73a103.5,103.5,0,0,1-25.76,3.7c-4,.1-8.76,0-10.55,5.53-1.06-2.37,1.15-3.68,1-5.9-4.14,4.82-4.44,5.32-4.17,6.88.85,4.86,1.54,6.67,3.84,9.39l-2-8.27c4.36,9.34,8.8,18.55,9.81,28.85A7.15,7.15,0,0,0,187.09,268.59Zm273.47,43.27c-.82,5.78-3.72,10.78-3.34,16.38a61.73,61.73,0,0,0,5.29,20.7c2.8,6.38,7.43,11.33,12.65,15.88,4.66,4.05,10.43,5.4,16.09,6.2,2.26.32,5.36-.38,8.06-1,17-3.61,34.44-24.45,35.1-41.94.63-16.64-4-31.14-16.47-42.71-5.23-4.86-12.82-8.35-18-8.05.47.08,1.17,0,1.37.28.95,1.31-.37,1.15-.95,1.15-3.57,0-7.22-.9-10.87,1,5.82,3.9,6.14,6.42,1.88,12.41,11.1,2.93,22.53,11.39,20.44,15.15-1.2,0-1-2.17-2.86-1.78.82,1.81,1.58,3.4,2.27,5,6.23,14.74,4.61,26.42-4.89,35.43-8.3,7.86-18.94,8-27.91,1-4.8-3.75-7.23-8.87-9.85-14.13-1.91,2-3.73,3.93-6.44,2.31-3.1-1.86-2.83-5.07-2.2-7.9.71-3.21,3.35-3.85,6.83-3.35C462.25,321.1,464.11,315.46,460.56,311.86Zm-134,17.29c.21-1.95.78-4,.6-6-.63-6.91,1.76-14.74-5.83-19.65a5,5,0,0,1-2.14-3.17c-.49-4.64-4.85-5.45-7.6-7.62-1.48-1.17-4.11-3-6.19-1.83-1.3.71.89,3.13,0,4.83a6,6,0,0,0-.33,1.24c-10.24-7.68-19.51-8.27-29.27-1.69-6.82,4.6-10.55,11.68-14.55,18.59-3.58,6.15-2.42,12.27-.81,18.51.14.52-.38,1.95,1.06,1.32,5.07-2.2,10.37-.26,15.51-1-3.64-10.73-1-19.4,6.63-22.09,5.24-1.84,9.58.46,11.37,6.27-2-2.31-3.57-5.25-6.92-4.93-5.76.55-10.91,7.77-9.92,13.55.32,1.87.71,2.89,3.31,2.42,4-.72,8,.63,11.72,2.31,1.73-2.7,1.4-5.94,2.18-8.94a10.82,10.82,0,0,1,.27,8,18.74,18.74,0,0,1-4.59,7c7.73-3.35,14.84-.41,22.18.54q2-10.36,4.22-21.84c5.48,6.59,1.7,14,2.3,20.93,3.25.3,4.23-1.76,4.39-4.41.15-2.45,0-4.92,0-7.88C327.44,325.29,325.71,327.67,326.58,329.15ZM145.23,283l-.16.89a15.74,15.74,0,0,1-2.38,0c-19.84-3.08-39.66-6.22-59.51-9.24-6.12-.93-12.05-2.68-18.28-3.35-5.39-.58-5.85-1.2-7.08,4.35a19,19,0,0,0-.55,6.21c.25,2-.87,5.95,4.08,4.11a17,17,0,0,1,4.81.08c19.9,3.36,39.81,6.66,59.71,10.05,8,1.35,15.9,2.88,24.52,4.45-2.58,1.5-4.76-.3-6.91,1.24L157.92,305c-4.47.59-8.61-1.13-13.06-.18l11.85,2.62-.15.88-36.74-5.49-.14.91,45.29,8c-5.07-9.69-4.48-18.45.88-27,.55-.87,2.26-1.87,1.18-2.79-1.88-1.59-1.64,1-2.37,1.7-1.15,1.08-2.14.08-3.18,0-5.56-.69-11.11-1.46-16.67-2.13A12.42,12.42,0,0,0,142,282Zm55.33,77.37c-5.86-10.84-4.35-20.44,2.16-29.87-7.86,5-15.78-1.51-23.56.24.49,1.46,2.13.15,2.32,1.85a16.44,16.44,0,0,1-2.33,0q-26.15-4.08-52.3-8.22c-8.29-1.32-16.65-2.38-24.8-4.29-7.41-1.73-7.31-2.17-9.07,5.36-1.72,7.31-1,8.33,6.26,9.27,22.59,3,45,7.11,67.44,11,6.43,1.12,12.84,2.38,19.26,3.58-4.79,1.27-9.16-1.15-15.22-.6l22.86,5c-4.29.92-8.21-1.22-12.9-.36,4.17,2,8.59,1.29,13.27,4l-29.46-4.35-.15,1ZM493.5,333c2.88-2.19,4.74-4.54.31-6.8-3-1.53-3.8-4.58-4.88-7.39-4.86-12.58-8.53-25.55-12.78-38.34-6.41-19.28-13.25-38.42-19.78-57.67-3.33-9.8-3.28-9.87-12.83-5a6.33,6.33,0,0,1-.89.39c-2.48.85-2.39,2.18-1.49,4.47,4.54,11.51,8.28,23.3,11.7,35.19,1.17,4.05.67,8.87,2.51,12.08,4.78,8.32,6.81,17.45,9.87,26.28.69,2,1.75,3.8,0,6.1-.67.85-1,4.69.76,4.67,3.88,0,3.31,2.85,4.13,4.75,1.27,2.95,2.23,6,3.55,9.72.63-3.14,1.81-5.59,4.86-4.7,3.31,1,3.51,4.38,4.18,7.15a3.39,3.39,0,0,1-2.23,4.35c-5,1.59-3.14-4.46-6.18-5.55-1.07,3.09-1.23,6.35-1.89,9.5-.45,2.18-.5,3.51,1.72,4.58s3.83.61,5.45-1.29c3-3.49,7.22-4.8,11.48-6,1.31-.35,2.82-.51,3.55.56C494.93,330.6,493.91,332,493.5,333ZM359.6,354.86c2.56-.79,6.23-.48,6.72-3.54,1.07-6.83,3.76-12.9,6.37-19.23,3.94-9.58,6.14-19.86,9.31-29.76,3.87-12,6.76-24.39,11.89-36,2.31-5.23,5-11,5.57-16.11,1.3-11.81,5.4-22.94,6.47-34.82,1-11.2,5.1-22.12,7.85-33.15,1.59-6.36,1.56-6.44-5.57-8.47,1.15,1.72.84,3.25.46,4.8-6.94,28.06-14.56,55.95-21.46,84-3.73,15.2-10.89,29.28-13.06,44.93-1.64,11.92-7,23.09-7.68,35.3C366.18,347.6,362.93,351.33,359.6,354.86Zm105.94-186a27.42,27.42,0,0,1-3.27,0c-4.14-.65-5.84.79-6.39,5.25a195.16,195.16,0,0,1-4.61,24.85,13.78,13.78,0,0,0,2.28,12c1.63,2.2,5.15,4.83,8.81,3.15A141.61,141.61,0,0,1,481,206.7c2.69-.79,3.14-1.91,2.2-4.55-3.11-8.73-6.26-17.48-8.76-26.41C472.89,170.4,470.82,167.13,465.54,168.81ZM412.09,301.64c.35,3.13.54,5.85,1,8.53.36,2.12.42,3.71,3.5,1.37,6.82-5.18,11.69-12.14,17.79-18a5.13,5.13,0,0,0,1.71-3.4c-.64-8.94,3.51-16.69,6.76-24.38,2.16-5.11,2.64-9.25.65-14.15-1.09-2.67-2.6-3.25-5.22-2.35-5.5,1.9-8.7,6.28-11.37,10.92s-4.31,9.43-6.63,14.07a58.78,58.78,0,0,0-5.93,30.38c0,.22-.29.45-.47.72C412.43,304.59,414.3,302.83,412.09,301.64ZM358.17,198c-15,1.47-29.13.63-43.27,0,0,0,0-.18,0-.25,1.12-.45,2.61.59,3.7-1.21-3-.1-6.33-1.56-8.27.9-2.25,2.85-1,6.48.56,9.45,2.75,5.32,5.65,10.6,8.89,15.64,1.88,2.92,2.38,6.68,7.61,7.52,3.35.54,4.44.21,6-2.09a11,11,0,0,1,6.58-4.73c4.17-.9,7-2.31,6.46-5.39-.49-2.72.69-4.34,1.94-6.13C351.32,207.41,354.46,203.15,358.17,198Zm103.31-79.32a32.44,32.44,0,0,0,4.77,18.62c5.31,9,14.28,11.53,21.16,5.8,7.19-6,9.66-13.79,8.26-23.08-1.24-8.17-6.05-14.33-10.9-20.41-4.52-5.66-10.7-5.24-16.3-.25C462.49,104.69,461.82,111.55,461.48,118.69ZM315.66,21.34c-4.49-5.9-9.07-10-15.63-9.71-7.27.36-14.4-2.41-21.67-.55a4,4,0,0,1-3-.89C271,7.5,268,11.32,264.76,13.1c-2.5,1.37-1.2,3.58-.88,5.9.51,3.76,3.76,6.73,3.81,9.62.18,9,4.82,8.22,11,6.87,3-.64,5.92-.55,8.72-2.37a22.21,22.21,0,0,1,9.63-3.26c4.62-.5,8.7-2.6,13.12-3.94-5.38-.9-10.77-1.18-16.08-2-2.39-.35-6.86.73-6.57-2.73.35-4.2,4.77-1.4,7.32-2,.27-.07.61.19.93.22C302,20,308.26,20.63,315.66,21.34ZM368,313a10.85,10.85,0,0,0-1.75.63c-2.08,1.26-4.2,3.71-6.16,3.57-2.81-.19-2-4.18-3.59-6.1a17.24,17.24,0,0,1-1.81-2.24c-2.83-5.12-8.4-6.52-13-8.88s-8.9-5.32-14.14-6a28.26,28.26,0,0,1-11.77-4.28c-1.21-.76-2.23-1.81-4.37-.68,16.89,9.07,24.76,22.7,21.92,41.72,1.44.05,2-1,2.89-1.7,3.78-3.07,8.16-2.95,11.9.2,3.2,2.69,5,6.25,4.34,10.33-.56,3.3,2.89,1.9,3.33,3.66a4.77,4.77,0,0,0,1.2-3,61.93,61.93,0,0,0-.23-12.61c1.74.52,2.68,3.2,4.59,2,1.5-.95.68-3,.68-4.6,0-2.47-.29-4.64,3.05-5.56C367.72,318.8,368.24,316.19,368,313Zm-146.56-8.8c4.38,2.49,9.71-1.31,14.82-2.68,4.71-1.26,8.53-6.95,10.72-11.23a197.23,197.23,0,0,1,11.92-20,17.51,17.51,0,0,1,10.72-7.16c1-.26,3.28.44,2.31-1.69-.63-1.4-.05-4.32-3.25-3.9a17,17,0,0,0-5.09,1.6c-7.89,3.73-12.2,11.32-18.17,17.1-4.93,4.79-6.92,12-14.32,15-6,2.42-11.14,6.9-18.31,5.87-4.15-.6-8.38-.67-12.57-1.08-6.77-.65-13.53-1.37-20.29-2.09-2.49-.27-3.46,1-3.8,3.29-.4,2.72,1.17,2.71,3.17,2.95C192.77,301.86,206.29,303.32,221.4,304.24Zm32.22,24.29c-.63-4.11-3.28-7.63-1-11.88,1.92-3.55,3.46-7.31,5.33-10.89,1-1.85,1.91-4,3.46-5.2,3.84-3.09,4.41-6,1-10.08.34,2.75,2.4,5.46-.85,7.61-.83-3.42-.62-8-5.87-6.34-3.44,1.07-5.51,4.64-6.35,7.6a21.77,21.77,0,0,1-6.07,10.12c-5.5,5.24-18,8.41-22.6,5.78-1.1-.62-1.81-1.89-3.28-.92,1.94,1.49-2.85,2.56-.09,4.71,1.81,1.39.26,5.56,3.8,6.6.57.17.34.7-.16,1-2.75,1.48.39,1.51.67,2,.38.7,1.9,2.1,2.41.58.67-2,2-1.7,3-1.35,7.28,2.44,14.78,1.65,22.22,1.81,1.25,0,2.57-.39,3.75.56.63.52.29,2.35,1.75,1.57a3,3,0,0,0,1.4-3,38.59,38.59,0,0,0-1-4.36C254.57,325.82,255.12,327.27,253.62,328.53ZM195.74,188.72c14.65,4.38,38.12,2.06,50.71.21,7.65-1.12,13.14-6,19.12-10.06.17-.11.18-.47.31-.82-1.53-.69-2.47,1.63-4.06.69a27,27,0,0,1,1.61-4c1.77-3,1.05-4.1-2.36-3.65-5,.65-10,1.16-14.86-.29-5.45-1.65-6.92,4.35-11,5-.57.1-.22.48,0,.92.79,1.89.72,2.1-1,2.08-2.59,0-4.24,1.06-6.28,2.77-5.66,4.77-11.13,10.21-20,8C204.55,188.85,200.84,187.6,195.74,188.72ZM376.28,200.8c.23,1.63,4.18,5.18-1.73,3.35-.75-.23-1.07.2-1.62.59-5.92,4.25-8.69,10.55-11.4,17-.61,1.44.22,2.1.8,3,4,6.37,10.93,7.76,17.34,8.17,3.41.22,2.58,2.35,3.88,3.25,1.55,1.07-2.61,2.27.29,2.63,1.25.15,1.79-.8,2.46-1.87,4.2-6.67,4.95-14.56,8.64-22.12-3.63,1.36-3,5.36-6.81,6.84C393.1,209.31,386,204.41,376.28,200.8Zm76.48-64.89a52.71,52.71,0,0,1-1.12-22.81c.51-2.92,2.26-5.59,1.72-8.71-2.83,1-5.59,2.2-8.48,2.92-8.42,2.11-13.33,7.11-13.78,16-.09,1.79-.21,3.58-.2,5.36,0,7.85,2.91,9.58,9.88,5.73,3.23-1.78,6.94,2,9.93-1.1Zm-37.5,7.58c1.31-.27,3.18-.69,5.07-1,.85-.14,1.94-.33,1.39-1.32-1.68-3,1.51-7.36-2.77-9.81-1-.58-1.76-2.64-1.63-3.92.46-4.46-1.83-8.12-2.94-12.12-2.3-8.22-5.86-16-6.95-24.68-.42-3.37-3.77-3.91-6.94-3.08s-3.4,2.44-2.11,5.34c1.83,4.13,4.19,8.44,3.95,12.92-.36,6.79,2.18,12.43,4.84,18.27C410.05,130.4,412.53,136.89,415.26,143.49Zm-151.66,79a7.14,7.14,0,0,1,4.41-1.22c11.09-.38,21.51-2.53,29.75-10.84,2.25-2.27,5.4-1,5.77,2.21.09.82-1,1.82.78,1.59,1.08-.14,1.86-.8,1.18-2-1.25-2.29-1.16-4.8-1.55-7.27a8.85,8.85,0,0,0-4.71-6.67c1.23,6-.31,5.65-4,2.81-2.7-2.08-5.88-3.6-9.66-.93-2.28,1.61-5.38,2.15-8.19,2.92C266.23,206.11,263.36,209.91,263.6,222.46ZM463.43,395.22a22.21,22.21,0,0,0-1.45-1.76c-8-7.94-16.62-15.28-18.88-27.33-1-5.46-5.19-10.16-6.45-15.27-1-4.06-2.86-8.58-2.07-13.18.12-.73.09-1.91-.36-2.25-4.12-3.18-1.42-7.32-2.08-11,2.4,2.5-1.07,5.68,1.8,9.08a136.09,136.09,0,0,1,0-22.48c-2.34,3.5.43,6.69-2.12,9.87-.6-7-.13-13.22,2.15-19.29.28,2.48-.56,5,.12,8,1.12-5.43,2.13-10.27,3.13-15.11-2.39,3.75-4.48,7.93-7.95,10.27-2.32,1.57-3.09,3.45-3,5.22.58,8.73-.2,17.51,1.47,26.21C432.41,360.24,443.48,380.37,463.43,395.22Zm92.38-122.38c-1.24,2.19,0,3.64.5,5.25,2,5.88,7.06,10.62,6.13,17.58-.27,2.07,2.92,1.79,3.42,3.92,5.7,24.5,3.8,48.12-8.55,70.33-9.78,17.59-24.42,29.15-44.12,34.23-9.11,2.35-18.21,2.07-27.45,1.1a14.72,14.72,0,0,0,4.8,1.58c25.56,2.7,46.89-5.45,62.8-25.78,16.89-21.58,20.75-46.4,16.14-72.88A96.46,96.46,0,0,0,555.81,272.84ZM181.21,150c-7.47-2.79-13.78-5.06-20-7.49-9.13-3.57-16.34,1.14-24.8,5,6.55,4,12.18,7.46,17.75,11a2.52,2.52,0,0,0,3,0A83.34,83.34,0,0,1,181.21,150ZM354.86,67c3.12-2.17,5.36-5,7.71-5.12,8.15-.29,16.91,1.33,21.09,8.56s10.83,5.62,16.18,8.43a25.26,25.26,0,0,1-7.25-8.41c-6.6-11.59-18-14.62-29.7-16.75-4.6-.84-9.32.9-13.59,3.95C354.78,58.26,356.7,60.94,354.86,67ZM547.31,374.68c2.44-1.34,3-3.07,1.77-5.56-3.68-7.23-7.26-14.51-10.94-21.73-.6-1.19-.82-3-2.94-2.51-1.61.37-2.91.87-3.65,2.67a49.94,49.94,0,0,1-3.86,7.3c-1.3,2.1-.85,3.32,1.09,4.81,5.64,4.34,11.08,8.93,16.6,13.43ZM152.06,248.45c1.56,1.8,3.43,2.41,4.62,4.47,4,6.93,4.88,14.8,7.56,22.09.46,1.25-.49,3.05,1.49,3.75,2.42.87,3.06-1.56,4-2.53,5.9-5.83,5.75-7.43,3.15-14.28-1.06-2.78-3.75-.71-4.94-3.25-1.66-3.53-5.23-6.12-7.28-9.54C158,244.7,155.46,245,152.06,248.45ZM542.23,330c7-1.87,13-3.67,19.15-5,2.58-.57,3-1.87,3-4.06s-.3-3.63-2.85-4.25c-4.87-1.19-9.66-2.75-14.47-4.17-1.66-.49-3.32-1.77-5-.21-1.83,1.72-1.25,3.67-.66,5.83C542.33,321.69,544.81,325.15,542.23,330ZM430.06,172.75a24.5,24.5,0,0,0-.18,3.78,132.14,132.14,0,0,0,11.95,37.36c.62,1.24,1.08,2.41,2.76,1.23,1.19-.83,3.46-.69,2.56-3.21-1-2.91-2-5.83-3-8.76-1.49-4.46-4.45-9-4.09-13.35.67-7.89-5-13.53-5.23-20.83-1.19,2.84.77,5.09,1.14,7.64a58.91,58.91,0,0,0,2.34,8.08c-1.69-1.7-2.2-4.23-3.74-5.5C432.8,177.7,432.2,175.61,430.06,172.75Zm116.18,95.38c-2.63,2-5,3.88-7.47,5.73-9.81,7.49-9.81,7.48-5.64,18.91a8.85,8.85,0,0,0,.51,1.36c1.45,2.63,3.14,2.75,4.58.11,3.57-6.56,7-13.2,10.47-19.8C550.29,271.42,547.93,270.12,546.24,268.13Zm-382-28.72c-6-4.29-11.9-2.32-16.5,1-12.15,8.78-26.42,13.68-38.7,22.11-3,2.05-5.93,4.2-9.43,6.69,2.23.52,4,1.13,5.19.17,5-4,10.84-6.53,16.47-9.31C135.42,253.09,148.2,243.29,164.27,239.41ZM54.13,203.18c5.82-7.16,4.78-19.05-1-24.29-2.37-2.16-4.2-1.45-4.72.92-1.67,7.54-3.42,15.23,1.4,22.43.11.15-.09.52-.13.71-1.16.29-1.21-1.9-2.66-1.18,2.63,5.53,4.43,5.75,9.56,1C55.8,203,55,203.73,54.13,203.18ZM100.3,138c7.56,1.3,15.12,2.67,22.71,3.86,1.5.23,3,1.05,4.69-.12,4.74-3.39,10.32-4.95,16.89-6.79C128.82,131.42,114.46,133.29,100.3,138ZM476.61,387c4.53,7.32,11.28,10.26,19.1,11.56,8.07,1.34,16.06,2.93,23.81-1.18-4.1-3.7-9.28,2.86-13-2a8.34,8.34,0,0,0-1,.82c-2.12,2.25-2.12,2.25-3.88-.64-1.44-2.36-7.62-4.24-8.57-2.59-.6,1,.65,3.56-2,2.87-1.76-.47-1.45-2.49-1.29-3.84.68-5.81-4.81-6.45-7.8-8.69-2-1.5-3.38,2.47-5.28,3.68C476.43,387.11,476.39,387.53,476.61,387ZM447.5,59.68c-2.24,1.52-6.7,2.37-5.51,5.91a67.66,67.66,0,0,0,9,17.59c1.12-2.62,3.65-4.14,2.8-7-1.48-4.93-4.1-9.33.27-14.75,2.51-3.13-2-7-7.72-6.87-.78,0-1.67-.37-2.21.53-.7,1.16.89,1.47.94,2.46C445.17,59,447.44,57.79,447.5,59.68ZM432.57,381.59c.29-.69.55-1,.5-1.26a5.93,5.93,0,0,0-.63-1.8,109.68,109.68,0,0,1-15.33-60.64c.05-1.21,1-3.1-1.62-3.17s-2.21,1.8-2.23,3.36a124,124,0,0,0,3.4,29.57c.66,2.79,1.86,5.73,2.29,8.57.77,5,4.73,8.06,6.61,12.33S427.76,378.3,432.57,381.59Zm46.25-212.31a7.19,7.19,0,0,1,2.8,4c.9,2.92-3.12-.53-2.6,2.08,1.05,5.28-.41,11.4,4.81,15.26,3.87,2.86,5.74,6.71,6.61,11.25,0,.16,0,.33,0,.49a1.48,1.48,0,0,0,2.16,1.23c1-.35.91-1.28.41-2-1.94-2.87-1.36-6.07-1.46-9.25-.25-8.6-6.6-14.82-9.18-22.55C482,168.63,480.61,168.57,478.82,169.28Zm-15.93-68.5c-16,12-11.54,31.56,2.08,39.23C458.32,125.88,458.22,123.92,462.89,100.78ZM306.26,358.43c.06-6.15-4.15-11-7.82-9.89s-3.82,5.7-7.44,6.61c.61,2,1.27,4,1.8,6,1.32,5,5.35,4,8.61,3.45C305,364,306.08,360.93,306.26,358.43ZM414.9,159.3a15.66,15.66,0,0,0,3.45,10.34c3.71,4.13,7.76,3.85,10.8-.8a17,17,0,0,0,2.9-8.16c.46-6.33-3.71-13.55-8.12-14S415.27,152.21,414.9,159.3Zm-18,51.64c.75-3.91,1.23-6.9,1.92-9.85.93-4-1-4.88-4.52-5.09-6.48-.38-12.74,1.35-19.26,1.48C382.47,201.44,390,205,396.93,210.94Zm128.9,150.85c.9,4.48-1.63,7.6,1.29,10.54s5.47,6,8.39,8.84c1.16,1.12,2.1,3.8,4,2.77,2.18-1.21,3.79-3.5,5.57-5.4.63-.66-.09-1.17-.55-1.56C538.66,372.22,532.81,367.47,525.83,361.79ZM41.56,177.49c-3.49,2.65-8.39-2.74-11.38,2a19.22,19.22,0,0,0-3.34,11.91c1-3.64,1.74-7.36,4.93-11.7.11,6.39,3.14,9.49,8,11.28.24-2.11.17-4.27.79-6.22,1.27-4,2.38-8.68,7.66-8.85a11.49,11.49,0,0,0,8-3.65c-2.17-.38-5.56-2.15-6-.8-1.29,4.2-4.76,2.4-7.07,3.37-2.14.9-4.68.86-7.32,1.27C37.79,177.59,40.05,175.94,41.56,177.49Zm381.69,68c-4.72,1.51-8.34-.19-8.86-4.87a29.77,29.77,0,0,1,4.56-20,6.26,6.26,0,0,1,6.78-2.87c2.61.54,3.39,2.68,4.21,4.88,1.6,4.28.74,8.59-.06,13.34,5.07-5.69,3.32-18.52-2.54-22a3.35,3.35,0,0,0-4-.06c-11.23,6.92-12.13,17.48-10.74,27.07a9,9,0,0,0,5.9,7.24C421,249.19,423,248.7,423.25,245.5Zm-82-193.4c-2,3.8-5.5,4.76-8.83,5.89-2.45.83-5,1.46-7.46,2.09-1.26.32-2.61.29-2.61,2.16,0,2.49.23,5.22,1.79,6.89s3.46-.62,5.08-1.26c2.52-1,4.63-3.24,7.19-4C342.84,62.07,342.66,57.74,341.29,52.1ZM540.7,344.9l11.21,22.39c7.42-6.56,3.08-12.07-.76-17.81C548.68,345.79,546.7,341.78,540.7,344.9Zm23.39-17.26-19.36,5.24c3.95,7,7.82,8.77,15.82,5.92C565.55,337,563.26,331.78,564.09,327.64ZM426.54,226.33a22.11,22.11,0,0,0,.2-2.43c0-1.82-.15-3.93-2.3-4.29-1.79-.31-2.74,1.33-3.55,2.85a25.66,25.66,0,0,0-2.5,18c.27,1.26.79,2.56,2.32,2.81s1.68-1.24,2.38-2.05C426.87,236.85,425.85,231.39,426.54,226.33Zm102,51c3.87-3,7.58-6.13,11.63-8.78,3.66-2.4,4.08-4.21.68-7.37-2.57-2.4-4.14-2.38-6.25.19a26.55,26.55,0,0,1-4.5,4.49C525.75,269.07,525.5,272.77,528.52,277.31Zm35.2,33.26c-1.35-2,.45-6.14-2.37-7.38a25.4,25.4,0,0,0-10.85-1.66c-3.08.11-4.18,3.53-4.88,5.92-.54,1.83,2.32,1.72,3.66,2.2,3.79,1.34,7.72,2.3,11.57,3.47C562.74,313.7,564.11,313.7,563.72,310.57Zm-50.51,58.5c-3.71,1.79-6.47,3.19-9.5,3.7-1.93.32-2.37,1.4-2.06,3.1.64,3.5,1.25,7,1.91,10.51.52,2.75,3.12,1.79,4.75,2.53,1.41.65,1.43-.74,1.59-1.65C511,381.57,512,375.87,513.21,369.07ZM456.86,31.67c2.9,0,5-.1,7.06,0,1.45.09,3.82-.75,3.73,1.74-.07,2.16-2.27,1.17-3.55,1.25-1.94.13-4.38-.35-5.35,1.51-1.21,2.34,2,2.79,2.93,4.27,1.92,2.93,6.79,2.65,8.31-.34a13.61,13.61,0,0,0,.25-11.24c-.95-2.45-3.43-3.46-6.09-2.65A12.55,12.55,0,0,0,456.86,31.67ZM552,276.6c-3,3.51-9.49,16.43-10.32,20.29,9.17,2.59,9.54-6.24,13.11-10.51C558,282.57,553.46,279.87,552,276.6ZM111.17,313.87c-1.94-3-3.79-5.74-5.57-8.54-2.15-3.39-5.91-3.55-9.07-3.58-2.32,0-1.36,3.49-2.24,5.28-.61,1.22-.8,2.64-1.29,3.93-.86,2.25.09,3.17,2.19,2.61C100.51,312.14,105.77,313.11,111.17,313.87ZM517,367.92c-1.17,6.09-2.13,12.13-3.57,18.06-.82,3.4.54,3.74,3.35,3.83,3.18.11,4.41-1,4.32-4.18,0-1.9.52-3.81.65-5.73C522,375.47,523.06,370.73,517,367.92ZM79.72,148.06c6.77-4.57,14.29-2.28,21.37-2.51s14.06,1.39,21,2.61C110.51,139.7,86,139.67,79.72,148.06ZM380.51,72.87c-4.59-1.88-9.2-3.73-13.78-5.63-3.29-1.37-6.31-.19-9.4.77-2.28.71-1.68,2.48-1.65,4,0,2,1.5,2.3,3.09,2A96.33,96.33,0,0,1,380.51,72.87ZM96.06,248.39c-1.23,1.36,4.33-.43.83,2.27-1.84,1.42-.56,3.6.57,5.33.63,1,1.71,2.33,1.43,3.09-.55,1.47-1.61,3.12.32,3.67a3.53,3.53,0,0,0,4.6-2.55,21.72,21.72,0,0,0,.55-7.14c-.27-2.07,1.7-5-.31-6.26C101.45,245.22,98.47,246.86,96.06,248.39Zm113.61,96.3c1.81-2.51-.48-3.53-2.44-4.65s-4.88.21-5.61-3a16.38,16.38,0,0,0-2.53,8.56c0,1.45-2,4.26,1.61,4.66C207.51,351.07,209.2,350.09,209.67,344.69Zm-43-43.13c7.18,0,8.17-.54,7.88-7.39-.16-3.72-5.07-3.64-7.43-3.58-4.42.11-3,4.76-3.7,7.59C162.56,302.1,165.43,301.73,166.71,301.56ZM76.09,168.43c.39.47.73,1.29,1.19,1.36,15,2.39,30.9-1.55,45.18,6.45-12.09-7.68-25-11-38.94-6.88C80.39,170.28,78.73,169.16,76.09,168.43Zm370-74.88c-4.42,2.56-7.36-1.41-11.65.68-2.65,1.29-7.05,2.77-10.61.31-1.3-.9-2.72-.85-3.32.34a2.58,2.58,0,0,0,1.45,3.21c5.35,1.4,10.78,2.47,16.17,3.65.48-2.67-2.49-1.4-2.05-3.29C438.71,96.24,443.35,99.11,446.06,93.55ZM229.61,166.1c-19.68-22.1-41.39-17.64-63.23-7.25,10.76-3.32,21.45-6.86,32.92-7C211.68,151.79,220.49,159.21,229.61,166.1ZM473.29,385.91c2-2.51,3.87-5,5.91-7.23.41-.46,1-.56.72-1.36-.86-2.44-6.6-4.23-9-2.7-1.93,1.24-3.76,2.63-5.86,4.12ZM414.94,203.8c6,1.45,11.41,4.3,17.88,3-1.54-3.49-1.45-7.62-4.77-10.18C425,201.62,419.19,200.74,414.94,203.8Zm32.32-12.25c1.4-6.62,2.85-13.24,4.13-19.88.15-.79,1.56-2.18-.41-2.73-1.53-.43-2.31.18-2.74,1.79-.72,2.66-1.07,5.8-2.74,7.74C441,183.67,445,187.46,447.26,191.55ZM258.19,286.11c3.66,1.21,7.06,2.33,7.74,5.95s2.1,2.24,3.73,1.08a4.63,4.63,0,0,0,2-4.66,7.3,7.3,0,0,0-5.13-6.4C262.35,280.47,260.67,283.33,258.19,286.11ZM342,337.44l-.73-1.23q-12.45,4.79-24.91,9.55c-2.55,1-5.18,1.75-7.72,2.75-1.22.47-2.37,1.17-1.66,2.91.87,2.13,2,.49,2.86.15,3.68-1.5,7.31-3.15,11-4.75ZM226.52,290.1c-11.51-1.88-23-1.57-34.38-.26C203.63,289.34,215.11,294.67,226.52,290.1ZM525.1,375.84c-.32,4-.61,7.37-.86,10.74-.13,1.73.5,3.19,2.42,2.53,2.78-1,6.12-.38,8.29-2.94.1-.11-.39-.83-.72-1.15C531.3,382.1,529.14,378.41,525.1,375.84ZM66,256.31l-1.83,5.32c-2-3.78,2.21-7.55-.81-11-2.92,2.94-2.12,8.05-6.53,10.15-.87.42-2.48,4.34-.15,4.68,2.9.43,6.46-.65,9.08-2.19C67.72,262.1,66.62,258.93,66,256.31ZM417.09,144.8c-1.8,1.08-2.64,1.35-3.13,1.92-5.44,6.28-5.24,13.79-3.64,21.1,1.32,6.08,7.71,8.94,13.65,7.12C410.37,170.92,408,161.84,417.09,144.8ZM361.33,306.63c2.71-2.57,6.27-3,9.13-4.64-1.19-3-4-.78-5.63-2.2l1.13-5c-3.84.89-7.13,1.79-10,3.7,1.44,3.32,5.78-1.56,6.22,2.12.26,2.19-1.79,4.64-2.74,7-.15.36,0,.87.07,1.35,2,.3,3.43-.67,5.6-1.39Zm138.36,79.49c.25-3.62-.75-7-1.39-10.48-.54-2.91-2.88-2-4.69-2.07-1.42-.07-1.89.69-1.95,2.11C491.38,382.57,492.66,384.32,499.69,386.12Zm-94-304.72c6,3.42,10,11.64,18.75,7.62C419,84.35,413.07,80.91,405.66,81.4ZM558.43,354.86c1.57-4.54,4.49-8.78,2.68-11.91-1.35-2.34-6.19.13-9.89.38C553.51,347,555.69,350.47,558.43,354.86ZM136.76,268c-1.73,1.65-3.65,3.58-5.17.91-1.17-2.05-1.19-4.52,2.24-5,2.12-.29,1-1.53.66-2.48-.23-.64-.65-2.15-1.29-1.23-1.61,2.34-3.36,1.79-5.5,1.29-.78-.19-2,1.1-1.18,2a14.28,14.28,0,0,1,3.61,8.14c1,6.5,5.43-1.72,7.24,1.61l.72-.59ZM151.4,312.5c12.81,9.58,14.64,10.52,20.23,10.39C159,312.37,156.62,311.12,151.4,312.5Zm350.17-138c-9.11-5.17-10.27-20.15-1.84-27.74-6,.86-7.5,4.48-7.29,17.23C492.51,168.36,497.44,174,501.57,174.52ZM131,142.39c7,3.47,12.13-.69,18.78-2.52C142.16,136.45,136.65,139.14,131,142.39ZM401.77,343.92c2.93,0,4,2.59,6,3.65,1.74.92,2.91,1,4.06-.67,1.63-2.31,2.48-4.92.9-7.35-1.11-1.71-2.55.26-3.73.77C406.56,341.39,404.19,342.7,401.77,343.92ZM100.34,224.11c.41-2.52,0-2.86-2.46-2-4.79,1.62-2.27,6.1-3.47,9.12-.36.91-.73,3.08,1.1,3.08,1.32,0,3.29-.31,3.56-2.54C99.39,229.18,99.91,226.65,100.34,224.11ZM149,274.33c-.39-5.67-1.75-6.9-6.56-6.51-2.27.18-1.57,1.54-1.49,2.7A6.72,6.72,0,0,0,148,276.7C150.18,276.54,149,275.27,149,274.33ZM78.1,304.78c1.82,3.62-7.23,4.29-.87,8.59,0-1.88.68-3.36,2.69-3.45a2.21,2.21,0,0,1,2.24,1.57c.35,1.24.66,2.93-.63,3.56-4.32,2.11-1.23,3.17.34,4.75,1.28-2.41,1.38-6.5,5.51-3.24.81.64,1.39.7,1.86-.28a1.32,1.32,0,0,0-.79-2C83.28,313.41,81.94,308.44,78.1,304.78Zm239.13-66.52c-7.61-2.27-14.77-.11-21.92,2.05-1,.29-2.56.26-2,2,.51,1.49,1.67,1,2.83.66C303.14,241.18,310,238.93,317.23,238.26ZM557.63,289c-1.11,1.56-2.21,2.94-3.11,4.44s-2.43,2.6-2.4,4.59c2.86.49,6.67,2.56,8.25.7,1.86-2.18-1.15-5.55-1.71-8.48C558.58,289.86,558.09,289.55,557.63,289ZM115.22,235.68c1.07-10.44.24-12.37-5.91-12.86C111.5,227.07,108.61,233.21,115.22,235.68ZM597,296.29c0-5.27-1.81-10.11-3.62-14.89s-3.89-9.64-6.1-14.33c-.52-1.1,2.59-1.29.3-2.11a3,3,0,0,0-2.3.49c-.88.56-.35,1.39,0,2.11C590.26,276.7,593.69,286.45,597,296.29ZM132.26,236.64c-.62-1.8-1.95-4.11-3.71-3.75-2.84.58-5,3.21-6.06,5.77-.74,1.77,2.14,2.41,3.38,3.52C126.48,242.72,132.19,237.79,132.26,236.64ZM319.5,262.1c-6.47-1.79-12.58.24-18.7,1.88-1.13.3-3,.43-2.26,2.33.57,1.43,2,.55,3,.29C307.51,265.11,313.33,263,319.5,262.1ZM277.34,86.62c.14,3.72,1,7.54,5.29,6.35,2-.56,4.9-1.9,6.35-4.4.65-1.13,2.63-1.69,1-3.49-2-2.24-.13,3.58-2.23,1.06-1.3,1.57-3.59.94-4.7.82-3.06-.3,1.7,3-1.57,2.59C279.05,89.29,277.76,89.07,277.34,86.62Zm82.52,155.9c5.49,6.7,16.62,11.45,20.89,9.27C373.46,249.39,366.86,245.47,359.86,242.52Zm-46.07-9c-7.25-.91-14.1,1.1-21,2.45-.81.16-2.11.59-1.51,1.93.47,1.07,1.6,1,2.55.75Q303.79,236.09,313.79,233.49Zm-.45,10.14c-5.84-1.69-11.34-.38-16.79,1.46-1.09.37-2.43.44-1.88,2.08.63,1.84,1.9.52,2.79.32C302.77,246.26,308.05,244.93,313.34,243.63Zm-.64-14.81-.24-1.16c-7.71,1.11-15.55,1.7-22.57,5.41l.33,1.3Zm64.47,31.4c-7.94-.86-13.62-6.17-20.79-7.3C363.1,255.35,367.4,264.17,377.17,260.22Zm-60.44-7.54c-6-1.79-11.72.41-17.49,2-.86.23-2.71.17-2.26,1.9s1.95.68,2.84.47C305.48,255.65,311.11,254.13,316.73,252.68ZM105.42,221c-2.32,2.25-2,5-2.37,7.35-.81,5-.72,5.06,4.7,4.71C107.23,229.08,106.89,225.11,105.42,221Zm241.39,5.07c-2.58-.48-3.59.91-4.88,1.84a33.91,33.91,0,0,1-11.71,5.25c-.91.23-2.13-1.28-2.93.2a1.84,1.84,0,0,0,.48,1.75c1.26.59,2.74,1.91,4,1C336.65,232.89,342.31,230.8,346.81,226.05Zm136.87,39.44c1.05,3.77-4.22,7,1,9.84,1.35.74,2.87.64,3.41-.63C489.69,270.94,488.67,267.89,483.68,265.49ZM329.06,76.88c5.62-1.25,11.28-2.07,16.91-3,.91-.14,2.27.41,2.12-1-.12-1.17-1-3-2.47-2.32C340.2,72.89,334.07,73.33,329.06,76.88ZM351.82,261.7c6.46,2.52,10.86,11.07,20.71,6.55C364.27,268.13,358.77,262.79,351.82,261.7ZM130.13,312.26c-1.29-.41-3.36.07-3.58-1.65-1-8-2.82-2.65-4.64-.37-1.23,1.54-2.7,2.9-4.09,4.36,3.11,1.87,3.56-1.58,5.34-2.17,3.57-1.18,2.49,2.72,3.87,3.88A5.94,5.94,0,0,0,130.13,312.26Zm245.87-55c-5.21-4.94-12.12-6.54-18.23-9.72C363.47,251.51,368.91,256,376,257.26Zm-56.84,9.67c-5.7-1-11,.68-16.37,2-1.13.29-3.59.09-2.93,2.18.46,1.47,2.31.37,3.43,0C308.54,269.6,313.85,268.29,319.16,266.93ZM119.69,236.08c1.63-1.74,2.94-3.33,4.45-4.7s.76-2.12-.51-2.88c-1.47-.89-2.86-2.69-4.56-2-.6.23-.37,2.9-.3,4.44S118.2,234.13,119.69,236.08Zm21.1,82.52c2,.52,2.3-.85,2.4-2.17.19-2.38-4.11-6.53-6.51-6.26a2,2,0,0,0-1.34,1.11C134.52,313.38,138.48,318.54,140.79,318.6ZM357,289.45c-7.09.68-11-5.66-17.08-7.54C342.07,287.4,352.72,292.16,357,289.45Zm140.1-17.05c2.09-5.41,1.31-7.36-4-9.95C491,267.16,493.56,270,497.14,272.4ZM144.35,256c-2.07,1.07-2.22,3.1-3.36,4.42-2.27,2.61-2.13,3.78,1.84,4.25,3.73.43,5,.14,3.28-3.73C145.4,259.38,145,257.71,144.35,256Zm396.77,85c1.07-.52,3.67.7,3.08-1.61-.54-2.12-1.67-4.78-4.45-5.12-1.13-.13-3.55,0-3,2S537.52,341.42,541.12,341ZM342,278.55c5.5,3,9.58,9.5,17.23,7.41C352.75,285.2,348.17,280.11,342,278.55ZM35.92,195.28c-3.54.86-5.22,3.85-6.86,3.95-4.59.26-2.47,3.26-2.84,5.19-.13.68-.08,1.78.93,2s1.24-.86,1.68-1.46C31,202,33.2,199,35.92,195.28Zm498.81,61.35c-1.36-1-2.57-1.8-3.72-2.68s-1.92-.56-2.16.66c-.59,3-2.25,5.86-1.88,9.1Zm-173.82,25.2c-6-1.8-10.69-6.44-16.86-7.64C349.6,277,353.63,283.07,360.91,281.83ZM371,264.38l-16.66-7.88C360.23,262.36,367.14,265.83,371,264.38ZM313.2,248.47c-5.75-.76-11.12.66-16.52,1.88a1.19,1.19,0,0,0-.87,1.5,1,1,0,0,0,1.36.91C302.52,251.35,307.86,249.9,313.2,248.47ZM541.74,300.3c-3.4-.71-3.79,1.58-4.18,3.66-.35,1.82.9,2.69,2.45,3,1,.21,5-4.59,4.72-5.69C544.2,299.36,542.53,300.6,541.74,300.3ZM268.89,247.39c4.94-1.85,9.89-3.68,14.81-5.55.89-.34,1.9-.73,1.61-2s-1-1-1.8-.59C278.52,241.73,272.81,242.87,268.89,247.39Zm-2.22-4.49c5.72-2.64,12.22-3.53,17.22-7.63A43.43,43.43,0,0,0,266.67,242.9Zm96.27,35c-5.33-2.08-9.68-6.22-15.44-7.31C352.45,273.43,356.47,278.21,362.94,277.85Zm-25.32,9.42c2.57,3.2,6.24,4.78,9.53,6.86,3.75,2.37,3.8,2.29,7.61-.65C348,294.26,343.41,289.16,337.62,287.27Zm-21.73-29.33-.3-1.19c-6,.81-12,1.22-17.52,3.95l.34,1.48Zm1.43,14.46c-5.37-1-10.37.64-15.42,1.85-.79.19-1.5.94-1,1.82.2.36,1.17.55,1.69.42C307.52,275.17,312.42,273.78,317.32,272.4Zm14-25.79c2.69,5.1,7.71,7.38,12,10.47a1.07,1.07,0,0,0,1.65-.35c.56-1.06-.38-1.28-1-1.72C339.73,252.23,335.53,249.42,331.32,246.61ZM147.58,159.7c-3.38-3.72-8.27-4.88-12.08-7.8-.82-.62-1.41-2.07-2.76-1.1a2.16,2.16,0,0,0-.8,1.65c.1,1.46,1.59,1.5,2.51,1.79A99,99,0,0,1,147.58,159.7Zm182.24,91.85c2.77,4.56,7.13,7,11.1,9.89.77.57,1.46.64,1.95-.29s-.27-1.1-.79-1.44Zm2.63-9.36c3.5,4.35,8.19,7.2,12.69,10.31.72.5,1.41.87,2.05,0s.22-1.4-.69-1.8C341.46,248.44,337.46,244.56,332.45,242.19ZM86.54,237.1c-1.22-1.3-1.67-3.86-3.67-3.44a4,4,0,0,0-3.18,4.24c.18,1.14,1.52,2.94,3.08,2.38S86.16,239.17,86.54,237.1Zm263.28,28.58c3.81,3.78,8.56,6.12,13.15,8.72a1.75,1.75,0,0,0,2.53-.7c.65-1.36-.62-1.66-1.48-1.86C358.92,270.63,354.75,267.43,349.82,265.68ZM253,257.16c-5.7,3.24-8,8.89-10.43,14.48Zm73.47,4.09c2.63,4.48,7.06,6.84,11,9.78a1.11,1.11,0,0,0,1.9-.51c.46-1-.29-1.34-1-1.79C334.42,266.27,330.47,263.75,326.51,261.25Zm-52.27-.49c4.32-1.6,8.63-3.21,13-4.79.87-.32,1.43-.75.95-1.74a1,1,0,0,0-1.56-.57C282.44,255.94,277.47,256.65,274.24,260.76Zm169.81-174c-.65,1.35-1.57,2.37.37,2.4,1.18,0,2.72-.14,2.1-1.73-.95-2.44-.76-5.55-3.57-7a1.37,1.37,0,0,0-1.29.39C439.87,83.79,443.48,85,444.05,86.79ZM92.2,225.45c-7.52,4.31-7.65,5.85-1.22,9.83C91.34,232.13,90.73,229.06,92.2,225.45Zm473.89,86.17v21.76C567.55,326.11,567.88,318.85,566.09,311.62ZM272.77,256.23c4.3-1.62,8.58-3.26,12.89-4.83.87-.32,1.58-.76,1.22-1.64a1.42,1.42,0,0,0-2.09-.49C280.77,251.47,275.9,252.06,272.77,256.23ZM485.71,372.72c-2.62-1.16-4.74-2.24-7-3-1-.35-2.49-.36-2,1.51C477.77,375,482.47,376,485.71,372.72ZM328.23,256.34c2.42,4.38,6.54,6.61,10.2,9.4.79.61,1.52.54,2-.29s-.14-1.08-.74-1.47C335.85,261.46,332.05,258.9,328.23,256.34ZM325,265.86c2.18,4.58,6.35,6.71,10.09,9.34.71.5,1.45.87,2-.12.42-.71,0-1.18-.61-1.57ZM302.18,279c.07.43.15.86.22,1.29,5.14.34,9.87-1.47,14.66-2.95l-.22-1.23ZM52.4,278c0,1.53-.2,3.17,1.56,3.21,1.39,0,1.49-1.77,1.43-2.58-.16-2.37,1.65-6.58.24-6.65C52,271.79,53.67,276.12,52.4,278Zm234.3-32.43c-4.7-1-14.15,3.1-16.15,6.47ZM69.81,300l2.81,7.2c.7-4.12,2.55-5.16,5.82-3.52l-2.31-5.85C74.19,298.92,74.08,302.87,69.81,300Zm282.12-50.51-9.3,18.57C345.62,265.76,351.21,255,351.93,249.49Zm-261.7,70c-2.92,7.09-2.85,9,.27,12.06C90.07,327.74,92,324.31,90.23,319.52ZM136.78,242c-.43-1.06-1.35-2.13-2.12-1.65-2.09,1.29-4.72,2.24-5.39,5-.21.84.85,1.41,1.68,1.07C133.28,245.43,135.84,244.68,136.78,242ZM396.38,89.49c-5.12,4.31-4.87,7.7,1.34,11.39C394.85,96.83,396.27,93.52,396.38,89.49ZM322.09,275.76l-.73.95c3.41,3.07,6.68,6.36,11.14,7.86l.88-1.28Zm-39.94,2.48c3.55-1.31,7.11-2.59,10.64-4,.72-.28,1.51-.82,1.14-1.8a1.07,1.07,0,0,0-1.64-.41C288.91,274.08,284.65,274.39,282.15,278.24ZM342,83.75a12.22,12.22,0,0,1,8.59-3.34c.82,0,.75-.93.35-1.46s-.43-1.85-1.55-1.18a28.23,28.23,0,0,1-8.54,3c-1.11.25-.61,1.24-.31,2S341.12,83.87,342,83.75ZM135.61,181.24c2.92,4.11,7.58,6.31,10.95,10A18.62,18.62,0,0,0,135.61,181.24Zm26.71-9.69a18.3,18.3,0,0,0,14.73,9.15C171.23,178.29,167,175.24,162.32,171.55Zm115.16,97,.51,1c3.6-1.29,7.22-2.53,10.79-3.9.77-.3,2.27-.4,1.83-1.75-.53-1.63-1.88-.91-2.84-.44C284.31,265.09,280.91,266.83,277.48,268.54ZM289.13,259c-4.47,1.33-9.13,2.22-12.58,5.6C280.91,263,285.62,262.3,289.13,259Zm200.37,5.55c.1-3.43,1.13-6.2-1.85-7.79-1.06-.56-1.74.34-2.07,1.31C484.47,261.31,486.74,262.55,489.5,264.54Zm13-20.82c-3.2-2-6-.33-9.7,0C496.79,247.83,499.61,244.4,502.48,243.72ZM279.89,274l13-4.89-.49-1.28A28.13,28.13,0,0,0,279.89,274Zm-203-119.88v11.36C79.17,160.86,78.78,157.52,76.88,154.09Zm211.15,87q2,7.49,4,15l1.16-.31C291.44,250.89,291.26,245.6,288,241.12Zm182.66-95.33c6.92,5.63,8.85,5.87,14.17.89C479.1,149.41,475,147.6,470.69,145.79Zm-110.32,61.9c5.12-7,5.74-10.3,2.35-12.64C364.07,199.53,361.25,203.09,360.37,207.69Zm109.55-54.1,0,.72c3.66,0,7.31,0,11,0,.77,0,1.77.07,1.74-1.09s-.77-1.42-2-1.21C477.12,152.62,473.51,153.07,469.92,153.59ZM325.79,272.43l-.83.95c2.8,2.73,5.62,5.42,9.48,6.55l.7-1Zm99.06-153.34,3.39,15.74A40.57,40.57,0,0,0,424.85,119.09Zm35.6-28.88-4.65-4.36c-2,1.89-1.21,4-1.26,6.4ZM328.67,25.36c4.65,1.79,8,5.07,10.7,9.18C337.85,29.06,334.11,26.17,328.67,25.36ZM284.24,280.94c9.44-1.24,9.44-1.24,11.27-4.61ZM70.34,190.36c-2,0-3.18-3-5-1.51-1.18.94-.2,3.61.68,4.17C67.82,194.19,69,192.07,70.34,190.36Zm420.44,22.16c3.15-.82,8,1.5,13.07,1.21C498.93,212.11,493.87,212.54,490.78,212.52ZM322.54,195.7l0,1.27c4.48.48,8.85-1.75,13.34-1.27ZM539,389.1a40.63,40.63,0,0,0,7.56-8.23Z" transform="translate(-7.91 -6)"/><path d="M56.45,304.47c-.39-2.3-1-4.59-.49-7.63,2.76,6,2.81,12.29,6.75,17,1.11,5.62,4.84,10,7.08,15.1-4.46-4.11-7.41-9.24-10-14.65-.6-1.25-.49-2.93-2.11-3.59Z" transform="translate(-7.91 -6)"/><path d="M556.09,414.74c1-4,6-3.81,7.65-7.1l12.9-10.52C571.56,405.19,565,411.39,556.09,414.74Z" transform="translate(-7.91 -6)"/><path d="M448.59,157.12c.75.46,2.6.63,1.31,1.92s-12.32-.14-13.86-1.48Z" transform="translate(-7.91 -6)"/><path d="M90.14,247.38c-2.88,0-6.33.58-4.26-4.31a4.8,4.8,0,0,0,.26-.57C91,241.25,90.47,244.39,90.14,247.38Z" transform="translate(-7.91 -6)"/><path d="M502.37,329.78c-2.15-.91-.22-2-.13-3C503.88,327.71,502.43,328.78,502.37,329.78Z" transform="translate(-7.91 -6)"/><path d="M565.74,381.4a2,2,0,0,1,1.74-2l.09,1.22Z" transform="translate(-7.91 -6)"/><path d="M565,382.33l.93-1C565.82,381.87,565.69,382.37,565,382.33Z" transform="translate(-7.91 -6)"/><path d="M378.75,176c-4.95-.59-9.43,1.65-14.17,2.39a162.86,162.86,0,0,1-23.47,2.23c19-2,37.25-6.88,55.46-12.39-3.71,3.88-8.86,4.06-13.36,5.82-1.56.61-3.64.1-4.58,2.08A1.54,1.54,0,0,0,378.75,176Z" transform="translate(-7.91 -6)"/><path d="M517.28,337.85c-.22-3,1.47-5.22,4.59-5.38,3.32-.17,5,2.38,4.84,5.43S525.3,344,521.8,344C518.62,344,517.26,341.31,517.28,337.85Z" transform="translate(-7.91 -6)"/><path d="M517.28,353.92c.15,3.51-1.43,5.85-5,5.77-3.2-.06-4.18-2.58-4.21-5.47,0-3.08.92-5.75,4.4-5.77C515.74,348.43,517.37,350.61,517.28,353.92Z" transform="translate(-7.91 -6)"/><path d="M500.36,287.33a4.16,4.16,0,0,1,4-4.54c3.48-.18,5.39,2.57,5.37,5.72,0,2.75-1.14,5.52-4.85,5.53C501.05,294.06,500.51,291.46,500.36,287.33Z" transform="translate(-7.91 -6)"/><path d="M487.56,360.64c-.42,2.3-1,4.88-4.59,4.72-3.78-.17-5.1-2.79-5-6,.12-2.75,1.77-5.19,4.77-5.23C486.56,354.11,487.42,357,487.56,360.64Z" transform="translate(-7.91 -6)"/><path d="M513,300.52c-.16-3,.59-5.8,4.08-5.92s5,2.69,5.11,5.78c.07,2.87-1,5.55-4.61,5.54S512.87,303.74,513,300.52Z" transform="translate(-7.91 -6)"/><path d="M474.81,348.05c.14,3.15-1.15,5.77-4.35,5.86-3.6.11-4.83-3.17-5-6.06s1.47-5.63,4.81-5.48C473.45,342.51,475.06,344.76,474.81,348.05Z" transform="translate(-7.91 -6)"/><path d="M493.52,362c.61-2.73,1.16-5.5,5-5.34,3.63.15,4.6,2.48,4.55,5.58s-1.47,5.51-4.82,5.51C494.68,367.74,493.87,365,493.52,362Z" transform="translate(-7.91 -6)"/><path d="M528,318.85c0,2.48-.27,5.19-4.29,5.06-3.67-.12-4.64-2.62-4.62-5.61s1.39-5.5,4.87-5.42S528,315.49,528,318.85Z" transform="translate(-7.91 -6)"/><path d="M311.69,329.56c-.29,2.21-1.07,4.34-3.92,4.48s-3.89-2.15-4-4.48c-.13-2.57,1.2-4.23,4.1-4.29S311.29,327.15,311.69,329.56Z" transform="translate(-7.91 -6)"/><path d="M296.1,300.17c-.25,2.33-.81,4.51-3.84,4.41-2.68-.09-3.36-2-3.55-4.27-.21-2.62.77-4.75,3.45-4.8S295.88,297.61,296.1,300.17Z" transform="translate(-7.91 -6)"/><path d="M313.75,318c-1.52-6.43-3.12-12.82-8.17-18.57C315.23,304.71,315.23,304.71,313.75,318Z" transform="translate(-7.91 -6)"/><path d="M270.39,316.34c0,2.42-1,4.47-3.52,4.32-2.79-.16-3.4-2.56-3.35-5.05s1.3-4.21,3.79-4S270.39,314.09,270.39,316.34Z" transform="translate(-7.91 -6)"/><path d="M443.93,220.87c10.27,28.93,20,58,27.87,87.73C461.37,279.72,452,250.51,443.93,220.87Z" transform="translate(-7.91 -6)"/><path d="M480.57,133.42c-2,.69-.66,4.74-3.42,3.87-3.27-1-1-4.12-1.31-6.31-1.92,0,.12,2.42-2,2.49v-6.85l-.45-.07c-.46,1.55-.88,3.11-1.41,4.63-.31.87.49,2.54-1.51,2.3.33-2-3.26-.22-2.72-3.1.41-2.2.88-4.29,1.43-6.19,1.13-.52,1.05,3.3,2.49.31.39-.8-.17-1.81,1.55-2.39,3.31-1.12,2.53,1.37,3.19,3,.66-2.15,1.24-4,1.91-6.22,1.43,2.15.47,4.22.42,7.23,1.6-2.84-.33-5.65,2.68-7,.25,1.26.54,2.68.93,4.59.18-3.26,0-6.13.6-8.83a36,36,0,0,0,1.06-8.6c1.89.2,1.42,1.54,1.59,2.54.75,4.57,1.95,8.86,5.46,12.27,4.19,4.08,2.12,14.44-3.36,16.09a11.44,11.44,0,0,0-6.35,4.59C478.52,139.1,481.27,136.13,480.57,133.42Z" transform="translate(-7.91 -6)"/><path d="M440.27,306.51c2.77-3.21,2.35-7.53,3.89-11.2s2.58-7.28,5.11-10.47c-8,20.49-10.07,41.4-4.27,63.8-3.09-4.67-5-14.89-5.42-23-.37-6.51,1.64-12.85.83-19.32Z" transform="translate(-7.91 -6)"/><path d="M342.56,302.29c4.06,3.23,7.49,5.71,10.61,8.53a7.34,7.34,0,0,1,2.11,8.05c-.59,1.72-.61,3.48-1,5.3C350.46,317.09,346.74,310.11,342.56,302.29Z" transform="translate(-7.91 -6)"/><path d="M371.43,211.24a4.31,4.31,0,0,1,4,6.13c-.32.74-.86,1.37-1.24,2.09-2.59,4.87-6.34,5.28-9.93,1.08-.3-.35-.71-.77-.72-1.17C363.47,218,370.16,211.24,371.43,211.24Z" transform="translate(-7.91 -6)"/><path d="M278.67,210.25c0-3.6,1.49-5.44,4.75-5.11,5.55.56,3.93,5.63,4.14,8.44.3,4.13-5,4.18-6.92,3.82C276.74,216.66,280.71,212.14,278.67,210.25Z" transform="translate(-7.91 -6)"/><path d="M101.32,237.16a2.72,2.72,0,0,1,2.34,3c-.09,1.66-.81,3.2-2.83,3.15s-2.43-1.92-2.4-3.43A2.56,2.56,0,0,1,101.32,237.16Z" transform="translate(-7.91 -6)"/><path d="M110.61,240.46c-.14,1.7-1,2.94-2.6,3-2,.11-2.85-1.6-2.81-3.2a2.54,2.54,0,0,1,2.74-2.71C109.78,237.69,110.17,239.11,110.61,240.46Z" transform="translate(-7.91 -6)"/><path d="M122.49,244.67c1.18,1.93,1.13,3.57-.94,4.92a1.86,1.86,0,0,1-2.56-.48,3.36,3.36,0,0,1-.33-4c1-2,2.57-1.3,4-.27Z" transform="translate(-7.91 -6)"/><path d="M93.16,238.44c1.11.48,2.62.06,3.27,1.58.55,1.28.67,2.43-.37,3.53a2.65,2.65,0,0,1-3.08.64c-1.35-.53-.93-1.84-1-2.91-.16-1.28.84-2,1.37-2.95Z" transform="translate(-7.91 -6)"/><path d="M116.8,243.13c0,1.46-.41,2.6-2.17,2.47-2-.14-2.86-1.31-2.74-3.24.1-1.63,1.13-2.14,2.64-2.15C116.59,240.21,116.87,241.51,116.8,243.13Z" transform="translate(-7.91 -6)"/><path d="M423.26,170.22c3.4-5.45-1.7-5.36-3.16-7.35-3.38-4.63-3.44-6.12,1.44-9.13a3.42,3.42,0,0,0,1.39-1.26c2.49-5.95,4.63-1.21,6,.5,3.2,4,2.2,9.65-2,14C426.18,167.8,425.26,168.48,423.26,170.22Z" transform="translate(-7.91 -6)"/></svg>