<svg id="Calque_1" data-name="Calque 1" xmlns="http://www.w3.org/2000/svg" viewBox="0 0 495.01 500.08"><defs><style>.cls-1{fill:#643486;}.cls-2{fill:#d4c7de;}.cls-3{fill:#bfabcd;}.cls-4{fill:#8966a4;}.cls-5{fill:#b59ec6;}.cls-6{fill:#825b9e;}.cls-7{fill:#aa90bd;}.cls-8{fill:#805a9d;}.cls-9{fill:#c7b6d3;}.cls-10{fill:#8965a4;}.cls-11{fill:#9d80b3;}.cls-12{fill:#9372ab;}.cls-13{fill:#7b5399;}.cls-14{fill:#c0acce;}.cls-15{fill:#f7f5f9;}.cls-16{fill:#e9a729;}.cls-17{fill:#fefefe;}</style></defs><title>logo</title><path class="cls-1" d="M1.16,367.25c1-2.86,3.41-2.15,5.42-2.15,31.18,0,62.37.18,93.56,0,33-.21,65.93.86,98.87-.61,31.15-1.39,60.25-9.43,85.78-28.16,26.52-19.45,41.66-46,48.66-77.72a187.23,187.23,0,0,0,4-36.48c.13-5.78.17-5.87,6.15-5.86q51.06.08,102.12.14c9.69,0,9.39-1.41,9.16,9.47-.76,36.88-6.68,72.73-22.55,106.34-27.58,58.42-72.93,96.63-134,116.6-34.79,11.37-70.61,16.22-107.11,16.39-24.17.12-48.33,0-72.49,0-4.19,0-5.08.75-5.12,4.95-.16,17.06-10.73,28.26-25.16,30.24-.27,0-.5.4-.75.62H84.86c-5.07-.85-10.17-.13-15.25-.37h-56c-3.57,0-7.13,0-10.7,0-1.86-.18-2.06-1.48-2-3V380.22C1.07,375.9.67,371.56,1.16,367.25Z" transform="translate(-0.52 -1.05)"/><path class="cls-1" d="M.57,64.57c1.61-3,1.34-6.35,2-9.52C8.8,24.21,35.33,1.59,66.84,1.28c40.22-.39,80.44-.17,120.66-.19,4.31,0,5.31,1,5.32,5.23q0,44.79,0,89.6c0,4.21-.84,5-5.47,4.93l-68.17-.38c-5,0-5.25.24-5.25,5.26q.06,68,.13,136c0,5.65-.84,6.61-6.21,6.6q-50.52,0-101-.06c-2.37,0-4.94.32-5.66-2.92-.47-3.13-.1-6.27-.22-9.41V223q0-76,0-152c0-1.4.37-2.86-.35-4.21Z" transform="translate(-0.52 -1.05)"/><path class="cls-2" d="M.57,66.71c1.15.6.69,1.68.69,2.54q0,76.59,0,153.17a5.71,5.71,0,0,1-.08.71c-.19.34-.4.33-.61,0Z" transform="translate(-0.52 -1.05)"/><path class="cls-3" d="M1.18,436.73V498.2c-.23.27-.43.24-.61-.06V436.71C.78,436.38,1,436.4,1.18,436.73Z" transform="translate(-0.52 -1.05)"/><path class="cls-4" d="M27.73,500.32l42.11,0c.25.14.33.29.25.43s-.15.23-.23.23H27.71c-.23-.15-.31-.31-.23-.46S27.65,500.32,27.73,500.32Z" transform="translate(-0.52 -1.05)"/><path class="cls-5" d="M1.18,436.73l-.61,0v-20c.21-.31.41-.32.61,0Z" transform="translate(-0.52 -1.05)"/><path class="cls-6" d="M69.86,501c0-.22,0-.44,0-.66,4.14,0,8.28,0,12.43,0,.91,0,1.92-.25,2.59.71Z" transform="translate(-0.52 -1.05)"/><path class="cls-7" d="M1.18,416.73l-.61,0V402.43c.22-.33.42-.32.62,0Z" transform="translate(-0.52 -1.05)"/><path class="cls-8" d="M27.73,500.32c0,.23,0,.45,0,.68H13.43c-.24-.15-.31-.3-.23-.45s.16-.22.24-.22Z" transform="translate(-0.52 -1.05)"/><path class="cls-9" d="M.57,223.14h.61q0,6.42,0,12.86c-.19.32-.39.34-.6,0Z" transform="translate(-0.52 -1.05)"/><path class="cls-10" d="M1.16,367.25l.05,13.05c-.22.31-.43.3-.64,0V367.43A.45.45,0,0,1,1.16,367.25Z" transform="translate(-0.52 -1.05)"/><path class="cls-11" d="M1.19,402.45l-.62,0V391c.23-.32.44-.33.65,0Z" transform="translate(-0.52 -1.05)"/><path class="cls-12" d="M1.22,391l-.65,0V380.29h.65Z" transform="translate(-0.52 -1.05)"/><path class="cls-13" d="M13.44,500.33c0,.22,0,.45,0,.67H2.71q-.36-.24-.24-.48c.09-.16.17-.24.25-.24Z" transform="translate(-0.52 -1.05)"/><path class="cls-14" d="M.57,236h.6c0,3.12,0,6.25,0,9.37l-.3,0-.29-.1Z" transform="translate(-0.52 -1.05)"/><path class="cls-15" d="M2.72,500.28V501c-2.86.66-2.08-1.42-2.14-2.86a3.15,3.15,0,0,0,.61.06C1.41,499.11,1.68,500,2.72,500.28Z" transform="translate(-0.52 -1.05)"/><path class="cls-16" d="M391.67,163.07H338.13c-4.79,0-5.3.59-4.92,5.4,0,.24,0,.48,0,.71,0,11.84-1.86,13.21-12,13.08-4.28-.06-8.56,0-12.84-.06-6.36-.16-8.49-2.4-8.6-8.74-.2-11.89.17-23.79-.41-35.68-.35-6.92-1.64-13.68-2.47-20.52a28.8,28.8,0,0,1,7.21-23.45c2.11-2.39,1.17-3-1.23-3.55-2.55-.56-5.07-1.24-7.61-1.87-4.54-1.13-8.32-6.9-7.51-11.52a3.28,3.28,0,0,1,3.43-3c4.86,0,9.73,0,14.58.3a4.9,4.9,0,0,1,4.87,4.44c.37,2.78,2.26,3.38,4.46,3.72s2.6-1.7,3.33-3.06c4.14-7.76,8.32-15.51,12.28-23.36C334.13,49.13,339.5,46,347,46q44.63-.33,89.24,0c7.54.06,12.89,3.19,16.31,10,4,7.85,8.16,15.58,12.27,23.36.81,1.54,1.27,3.55,3.74,3,2.05-.46,3.85-1.16,4.16-3.7.38-3.17,2.56-4.41,5.49-4.5,4.27-.12,8.55-.2,12.83-.19,3.74,0,4.89,1.44,4.33,5.14-.95,6.29-3.67,9-10.14,10.11-2.45.42-5.84.19-6.92,2.14s2.08,3.72,3.31,5.58a28.89,28.89,0,0,1,4.55,21.79c-2.7,14.84-2.74,29.81-2.73,44.8,0,3.81.07,7.62-.08,11.42-.18,4.55-1.95,6.7-6.38,7.09a112.82,112.82,0,0,1-20.3,0c-4.36-.41-6-2.43-6.22-6.8a56.73,56.73,0,0,1,0-7.49c.29-3.47-1.2-4.65-4.55-4.63-16.42.1-32.84.06-49.26.08h-5Z" transform="translate(-0.52 -1.05)"/><path class="cls-17" d="M391,83.13H337.12A25.56,25.56,0,0,1,333.2,83c-3.77-.56-5.41-3-3.64-6.35,3.64-6.81,7.61-13.45,11.67-20,1.63-2.64,4.62-3.26,7.57-3.27q43.2,0,86.41,0A11.11,11.11,0,0,1,446,60.16c2.2,4.61,4.79,9,7,13.65,2.79,5.85.64,9.27-5.88,9.29C428.41,83.17,409.73,83.13,391,83.13Z" transform="translate(-0.52 -1.05)"/></svg>