<svg id="Calque_1" data-name="Calque 1" xmlns="http://www.w3.org/2000/svg" viewBox="0 0 873.83 333.87"><defs><style>.cls-1{fill:#643486;}.cls-2{fill:#e9a729;}.cls-3{fill:#e9a829;}.cls-4{fill:#e9a82b;}.cls-5{fill:#fefefe;}.cls-6{fill:#fefcfa;}.cls-7{fill:#fefdfb;}.cls-8{fill:#fefefd;}.cls-9{fill:#fdf9f1;}.cls-10{fill:#fdf8ef;}</style></defs><title>logo-text</title><path class="cls-1" d="M69.39,247.28c20.47,0,41,.31,61.41-.09,20.72-.4,40.69-4.38,58.43-15.86,20.89-13.52,32.79-33.08,37.51-57.27a116.88,116.88,0,0,0,2.2-23.45c0-2.1.6-2.6,2.64-2.6q36.61.11,73.23,0c1.45,0,2.61-.13,2.61,2-.12,33.79-6.84,65.76-25.76,94.42s-45.22,47.41-77.44,58.28c-24,8.09-48.72,11.39-74,11.42-15.94,0-31.89.06-47.83-.05-2.37,0-2.9.68-2.92,3-.08,12.79-8.4,21-21.16,21-17,0-34,0-51.07,0-2.27,0-3-.51-3-2.92q0-42.51-.17-85c0-2.45.8-2.85,3-2.84,20.76.07,41.53,0,62.29,0Z" transform="translate(-4.1 -4.25)"/><path class="cls-1" d="M4.33,107.56c0-19.28-.26-38.58.07-57.86.33-19.53,9.67-33.58,27.41-41.84a39.88,39.88,0,0,1,16.9-3.55c26.86,0,53.73,0,80.59-.06,2.48,0,3.09.68,3.08,3.1q-.15,30.27,0,60.52c0,2.21-.41,3-2.85,3-15.74-.15-31.48-.07-47.22-.21-2.35,0-2.68.76-2.68,2.84.06,30.8,0,61.6.11,92.4,0,2.86-.68,3.54-3.53,3.52q-34.25-.19-68.49,0c-2.64,0-3.47-.59-3.45-3.37C4.39,146.53,4.33,127.05,4.33,107.56Z" transform="translate(-4.1 -4.25)"/><path class="cls-2" d="M208.3,64.47a62.13,62.13,0,0,0-7.19-1.85c-2.84-.39-4.1-1.72-4.7-4.56-1-5-1.07-5.16,4.07-5.08,1.47,0,3,.12,4.42.07,3.06-.11,6-.15,6.43,4,.16,1.39,1.64,1.15,2.62,1.47,1.42.47,1.66-.79,2.08-1.56,2.87-5.37,5.77-10.74,8.49-16.19,2.36-4.69,6.13-6.5,11.24-6.54q29.37-.24,58.74,0c5.1,0,8.89,1.8,11.24,6.52,2.67,5.37,5.55,10.63,8.38,15.92.46.86.62,2.18,2.2,1.87,1.42-.28,2.74-.57,3-2.31.33-2.6,1.87-3.27,4.33-3.14,2.74.15,5.51-.18,8.26-.15,2,0,2.91.73,2.53,3.13-.63,4-2.24,6.65-6.67,7a30.65,30.65,0,0,0-5.11,1.23c0,.34,0,.58.06.69,6,6.72,6.63,14.36,4.73,22.9-1.1,4.92-.8,10.17-.93,15.28-.13,5.41,0,10.83,0,16.24,0,4.23-1.5,5.72-5.63,5.73-3.84,0-7.68,0-11.52,0-3.2,0-4.68-1.51-4.82-4.66,0-.19,0-.39,0-.59-.12-7.5-.12-7.5-7.52-7.5H231.68c-5.63,0-5.61,0-5.64,5.49a22.85,22.85,0,0,1-.26,3.51,4.13,4.13,0,0,1-4.51,3.76c-4,0-8.07,0-12.11,0-3.72,0-5.32-1.61-5.37-5.44-.1-7.87-.06-15.75-.22-23.62a47.7,47.7,0,0,0-1-9.94C200.71,78.14,201.91,70.86,208.3,64.47Z" transform="translate(-4.1 -4.25)"/><path class="cls-1" d="M562.09,91.76q0-22.44,0-44.86c0-18.47,13.83-32.62,32.29-32.76,9.23-.07,18.49-.7,27.7.5C641.7,17.2,657.31,35,657.23,54.75c0,8.25.72,16.54-.53,24.75a41.89,41.89,0,0,1-40.4,35.07q-10.78.11-21.55,0c-1.9,0-2.53.46-2.49,2.44.13,5.8.07,11.61,0,17.41,0,6.16-4.14,10.4-10.3,10.53-4.62.09-9.24,0-13.87,0s-6-1.47-6-6Q562.09,115.36,562.09,91.76Z" transform="translate(-4.1 -4.25)"/><path class="cls-1" d="M349,91.7q0-22.58,0-45.15a32,32,0,0,1,31.2-32.36c9.62-.23,19.3-.83,28.88.47A40.93,40.93,0,0,1,444.11,54.8c0,8.44.82,16.93-.61,25.32a41.84,41.84,0,0,1-40.62,34.45c-7.08.05-14.16.08-21.24,0-1.95,0-2.53.55-2.49,2.49.12,5.8.07,11.6,0,17.41,0,6.2-4.11,10.37-10.32,10.48-4.72.09-9.44,0-14.16,0-4.07,0-5.72-1.67-5.72-5.72Q349,115.45,349,91.7Z" transform="translate(-4.1 -4.25)"/><path class="cls-1" d="M826.38,114.58c-6.29,0-12.57.2-18.73-1.61A44.63,44.63,0,0,1,775.1,70.09c-.11-7.65-.53-15.34,1.53-22.87a44.42,44.42,0,0,1,41.58-33c9-.27,18.09-1,27,1.56a44.61,44.61,0,0,1,32.69,43c0,7.46.47,14.93-1.41,22.3a44.61,44.61,0,0,1-42.71,33.47C831.3,114.59,828.84,114.58,826.38,114.58Z" transform="translate(-4.1 -4.25)"/><path class="cls-1" d="M716.11,114.58c-7.5.25-14.92,0-22.1-2.67a44.39,44.39,0,0,1-29-40c-.26-8.82-.85-17.7,1.84-26.36a44.58,44.58,0,0,1,40.82-31.28c9.21-.27,18.49-1,27.56,1.61a44.71,44.71,0,0,1,32.42,43c0,7.75.5,15.52-1.63,23.15a44.66,44.66,0,0,1-42.49,32.62C721,114.59,718.57,114.58,716.11,114.58Z" transform="translate(-4.1 -4.25)"/><path class="cls-1" d="M524.66,79.64q-10.62,0-21.25,0c-4.1,0-5.82-1.61-5.91-5.62-.08-3.54-.09-7.09,0-10.63.13-5,3-7.8,8-7.86,5.41-.06,10.83-.08,16.24,0,2,0,2.25-.56,1.61-2.38a19,19,0,0,0-16.94-12.6c-1.87-.06-3.74,0-5.61,0A18.78,18.78,0,0,0,481.9,59.23c0,4.42-.53,8.88.29,13.25,1.86,10,9.46,15.8,20.38,15.93,3.84,0,3.84,0,3.84,3.83,0,6.69,0,13.38,0,20.07,0,1,.34,2.22-1.43,2.29-11.14.41-22-.2-31.81-6.51-13.76-8.89-21-21.49-21.36-37.85-.17-7.55-.64-15.16,1.35-22.6a44.5,44.5,0,0,1,42.19-33.46c8-.21,16.11-.66,24.11,1,19.39,4,34.61,22,35,41.8.11,4.82.06,9.64,0,14.46-.06,5.3-3,8.18-8.28,8.19C539,79.66,531.85,79.64,524.66,79.64Z" transform="translate(-4.1 -4.25)"/><path class="cls-2" d="M468.51,187.72c0-3.05.05-6.1,0-9.15,0-1.45.34-2.4,1.95-2,1.81.4,4.11-1.24,5.46,1.37.33.64,1-.14,1.48-.42,3.69-2.22,7.27-2.19,10.63.6a1.49,1.49,0,0,0,2.25,0,10.47,10.47,0,0,1,6-2.12c5.91-.24,9.54,3,9.7,9,.11,4.13-.06,8.27.06,12.4.06,1.88-.65,2.34-2.39,2.29-6.1-.17-4.89.69-5-5-.05-2.66,0-5.31,0-8,0-2.24-.39-4.2-3.2-4.39a4.3,4.3,0,0,0-4.63,4.32,62,62,0,0,0,0,9.73c.33,3.28-1.35,3.2-3.77,3.32-2.8.13-3.54-.82-3.36-3.47.22-3.23.06-6.49.05-9.74,0-2.33-.76-4.16-3.47-4.14a4,4,0,0,0-4.28,4c-.21,3.62-.16,7.28-.06,10.91,0,1.74-.39,2.46-2.28,2.41-6.29-.18-5,.62-5.12-4.85C468.46,192.45,468.5,190.08,468.51,187.72Z" transform="translate(-4.1 -4.25)"/><path class="cls-2" d="M601.36,187.16c-1.3,3.87-2.49,7-3.37,10.16-.52,1.91-1.52,2.54-3.37,2.31s-3.81.75-4.7-2.1c-2.15-6.91-4.62-13.73-7.1-21,2.26,0,4.26,0,6.26,0,1.46,0,1.41,1.06,1.67,2,1.11,3.93,2.21,7.86,3.48,12.38,1.42-4.6,2.81-8.49,3.77-12.48.58-2.37,2.14-1.83,3.61-1.86s2.8-.37,3.33,1.81c1,3.89,2.34,7.67,3.71,12,1.5-3.12,1.94-6.07,2.74-8.89,1.41-5,1.37-5,6.54-4.95h2.15c-2.6,7.53-5,14.86-7.71,22.06-.85,2.26-3.3.68-5,1-1.24.26-1.93-.31-2.33-1.59C604,194.65,602.79,191.33,601.36,187.16Z" transform="translate(-4.1 -4.25)"/><path class="cls-3" d="M382.14,183.19c0-4.62.07-9.25,0-13.88,0-1.75.44-2.43,2.3-2.38,6.27.17,5-.64,5.11,4.87,0,.39,0,.78,0,1.18.07,1.46-.39,3.4.36,4.27.89,1,2.34-.66,3.62-1,6.16-1.49,11,1.79,11.31,8.09.23,4.42,0,8.86.09,13.29,0,1.58-.62,2-2.1,2-5.16.16-5.16.22-5.16-4.82,0-2.76,0-5.51,0-8.27,0-2.31-.83-4.08-3.49-4.23a4.23,4.23,0,0,0-4.52,4.09,98.68,98.68,0,0,0-.05,10.32c.13,2.4-.73,3.22-3,2.88a5.84,5.84,0,0,0-1.77,0c-2.36.39-2.76-.79-2.69-2.87C382.23,192.25,382.14,187.72,382.14,183.19Z" transform="translate(-4.1 -4.25)"/><path class="cls-2" d="M644.7,176.9a4.79,4.79,0,0,1,.61-.3c7.21-.59,7.2-.59,9.85,6l3.27,8.11c1.62-4.53,3-8.35,4.36-12.16.6-1.67,6.67-3.16,7.85-1.9.49.51.08,1.1-.14,1.63-3.63,8.8-7.11,17.67-10.94,26.38-2.22,5-7.07,6.67-12.07,4.59-.76-.31-2.45-.5-1.7-1.77.83-1.43.93-4.11,3.33-3.74,1.77.27,3.27.8,4.4-1s1.64-3.5.54-5.73C650.81,190.49,647.85,183.76,644.7,176.9Z" transform="translate(-4.1 -4.25)"/><path class="cls-3" d="M364.7,167c3.94,0,7.87.08,11.8,0,1.75-.05,2.42.41,2.43,2.28,0,4.34.11,4.34-4.15,4.34-6.53,0-6.53,0-6.53,6.62,0,5.6-.08,11.21,0,16.81,0,2-.51,2.72-2.62,2.69-5-.07-5,0-5-5,0-6.19-.09-12.39.05-18.59.05-2.12-.66-2.79-2.67-2.57a35.12,35.12,0,0,1-3.84,0c-4.2,0-5.05-1.19-4.18-5.42.32-1.54,1.37-1.14,2.25-1.15C356.44,166.94,360.57,167,364.7,167Z" transform="translate(-4.1 -4.25)"/><path class="cls-2" d="M635.85,184.77c-.05-2.32-1.52-3-3.24-3.33a9.18,9.18,0,0,0-6,1c-1,.53-1.66.54-2.45-.48-2.31-3-2.15-3.67,1.44-5.08a19.09,19.09,0,0,1,10.17-.86c4.28.69,7,4.14,7.19,9.18.17,4.13,0,8.27.07,12.4,0,1.59-.6,2.27-2.06,2-1.67-.36-3.69,1.13-5-1.06-.49-.8-1,.15-1.38.38a10.33,10.33,0,0,1-6.81,1.3c-3.5-.47-5.66-2.25-6.34-5.26a7.85,7.85,0,0,1,3.24-8.27,12,12,0,0,1,6.42-1.9C632.64,184.75,634.2,184.77,635.85,184.77Z" transform="translate(-4.1 -4.25)"/><path class="cls-2" d="M798.43,191.42V195c0,5-2.2,6.24-6.91,3.77-.92-.48-1.26,0-1.76.32a10.33,10.33,0,0,1-6.26,1.18c-3.64-.34-5.78-2-6.58-5.29a7.67,7.67,0,0,1,3.2-8.24c2.67-1.77,5.67-2,8.76-2,.77,0,2,.64,2.3-.5s-.71-1.95-1.76-2.38a7.67,7.67,0,0,0-6.83.45c-3.1,1.7-3.5-1.13-4.34-2.62-1-1.78,1.08-1.94,2-2.38a17.76,17.76,0,0,1,11.24-1.18c4.15.78,6.66,4.24,6.91,9.11.1,2.06,0,4.13,0,6.19Z" transform="translate(-4.1 -4.25)"/><path class="cls-2" d="M713.57,200.35c-7.29,0-12.54-5.17-12.5-12.34s5.22-12.15,12.36-12.19c7.31,0,12.46,5.08,12.44,12.34C725.84,195.25,720.72,200.33,713.57,200.35Z" transform="translate(-4.1 -4.25)"/><path class="cls-2" d="M842,190.17c-2.17,0-4.33.05-6.49,0-1.87-.06-1.66.81-1,2,1.57,2.71,5.91,3.5,9.88,1.79,2.34-1,4.15,0,5,2.46.32,1-.29,1.24-.79,1.63-3.74,3-12.43,3.17-16.57.41-4.31-2.87-6.07-8.11-4.65-13.86s6-9,12.31-8.73c5.41.21,9.34,3.89,10.24,9.58.93,5.85.66,4.66-4.08,4.76C844.52,190.19,843.24,190.17,842,190.17Z" transform="translate(-4.1 -4.25)"/><path class="cls-2" d="M424,190.17c-2.16,0-4.33.06-6.49,0-1.75-.06-1.8.71-1.09,1.93a5,5,0,0,0,2.94,2.31,9.75,9.75,0,0,0,6.89-.48c2.47-1,4.24-.07,5.06,2.5.32,1-.35,1.2-.84,1.58-4.24,3.29-13.41,3.14-17.49-.27-4.42-3.69-5.51-10.69-2.54-16.16a11.83,11.83,0,0,1,14.28-5.16c4.66,1.57,8.15,7.44,7.54,12.45-.16,1.32-.85,1.32-1.78,1.32Z" transform="translate(-4.1 -4.25)"/><path class="cls-2" d="M524,184.77c-.07-2.43-1.66-3.1-3.48-3.39a9.2,9.2,0,0,0-5.7,1.1c-1.05.53-1.65.52-2.44-.5-2.34-3-2.18-3.63,1.47-5.07a19.16,19.16,0,0,1,9.88-.89,8,8,0,0,1,7.11,7.53c.32,4.8.15,9.63.25,14.45,0,1.35-.71,1.87-1.82,1.58-1.7-.46-4,1.41-5.11-1.27a10.82,10.82,0,0,0-1.56.68,9.86,9.86,0,0,1-6.24,1.24c-3.4-.28-6-2.16-6.66-4.89a8,8,0,0,1,3.35-8.77,12.49,12.49,0,0,1,6.45-1.79C521,184.74,522.46,184.77,524,184.77Z" transform="translate(-4.1 -4.25)"/><path class="cls-2" d="M454.32,200.34c-3.49,0-6.35-.43-9-2.06-1.27-.78-1.45-1.41-.52-2.76,1.48-2.14,2.71-3.5,5.44-1.53,1.48,1.08,3.55,1.07,5.43.66.78-.16,1.56-.54,1.66-1.44a1.71,1.71,0,0,0-1.29-1.78c-1.93-.71-3.92-1.25-5.85-2-3.57-1.3-5.28-3.54-5.19-6.67s2-5.41,5.54-6.41a16.22,16.22,0,0,1,11.75,1c.75.37,2.29.77,1.05,2s-.78,4.16-3.61,3.11c-1.67-.62-3.25-1.39-5.09-1.23-1,.09-2,.38-2.29,1.49-.3,1.3.85,1.63,1.76,1.93,1.67.55,3.41.92,5.07,1.52,3.73,1.35,5.22,3.42,5.15,7-.07,3.29-1.69,5.26-5.32,6.57A15,15,0,0,1,454.32,200.34Z" transform="translate(-4.1 -4.25)"/><path class="cls-2" d="M688.64,169.49c2.77-.83,3.37.95,3,3.54-.46,2.88.66,4,3.5,3.47,2.27-.41,2.57.87,2.45,2.73-.1,1.67.3,3.57-2.43,3.09s-3.92.57-3.55,3.47c.24,1.84-.06,3.75.09,5.61.23,2.83,1.86,4,4.39,2.79,3-1.42,2.89,1.47,3.84,2.62,1.33,1.62-.62,1.95-1.46,2.41-7,3.85-13.75,0-14-8-.07-2.36,0-4.72,0-7.08,0-.91.07-1.93-1.28-1.76-2.88.36-2.16-1.69-2.27-3.24s0-3,2.23-2.63c1,.17,1.37-.46,1.32-1.42,0-.58,0-1.18,0-1.77C684.51,169,683.85,169.55,688.64,169.49Z" transform="translate(-4.1 -4.25)"/><path class="cls-2" d="M561.15,169.64c3.2-1,3.89.73,3.47,3.36-.44,2.8.55,4.06,3.45,3.5,2.6-.5,2.44,1.18,2.52,3,.09,2-.29,3.3-2.68,2.86-2.8-.52-3.58.78-3.31,3.39.2,1.95-.07,3.94.09,5.89.22,2.62,1.9,3.74,4.28,2.63,3.13-1.46,3.12,1.5,4,2.77,1.16,1.63-.9,1.91-1.73,2.3-5.64,2.65-14,1.52-13.79-8.26,0-1.77,0-3.54,0-5.3s.5-3.62-2.6-3.59c-1.89,0-.81-2.21-1-3.41-.11-.81-.53-2.36,1.06-2.17,2.94.36,2.67-1.5,2.49-3.27C557.16,170.47,557.65,168.52,561.15,169.64Z" transform="translate(-4.1 -4.25)"/><path class="cls-2" d="M740.55,188.11c0-1.28,0-2.56,0-3.84s-.18-2.07-1.73-2c-2.87.2-1.61-2-1.78-3.32s-.42-2.76,1.71-2.48c1.46.19,1.92-.5,1.8-1.86-.07-.88.08-1.78,0-2.65-.23-1.89.41-2.8,2.41-2.5a6.17,6.17,0,0,0,1.77,0c2.5-.41,3.44.69,3,3.08-.59,3.21.64,4.55,3.9,3.94,2.22-.41,2.14,1.14,2,2.54s.91,3.27-1.91,3.32c-4,.06-4,.21-4,4.13,0,1.67-.11,3.36,0,5,.23,2.67,1.88,3.86,4.21,2.73,3.15-1.54,3.22,1.41,4.07,2.69,1.16,1.76-1,2-1.91,2.47-7.23,3.47-13.46-.4-13.59-8.35C740.54,190.08,740.55,189.09,740.55,188.11Z" transform="translate(-4.1 -4.25)"/><path class="cls-2" d="M800,176.5c2.49,0,4.54.08,6.58,0,1.47-.07,1.74.88,2.12,1.94,1.48,4.14,3,8.26,4.73,12.91,1.49-4.29,3-8,4.05-11.82.69-2.38,1.82-3.19,4.32-3.07,4.69.22,4.69.05,2.88,4.27q-3.66,8.5-7.3,17c-.43,1-.78,2.13-2.21,1.85-1.93-.37-4.69,1.26-5.71-.93C806.09,191.51,803.19,184.14,800,176.5Z" transform="translate(-4.1 -4.25)"/><path class="cls-4" d="M854,183c0-4.53.08-9.05,0-13.57,0-1.89.48-2.58,2.47-2.51,5.94.2,4.89-.63,4.93,4.73.06,8.35-.06,16.71.07,25.06,0,2.29-.58,3.29-2.94,2.93a8.88,8.88,0,0,0-2.36,0c-1.7.19-2.19-.56-2.16-2.2C854.09,192.63,854,187.81,854,183Z" transform="translate(-4.1 -4.25)"/><path class="cls-2" d="M543.38,179c2.31-2.25,4.58-3.23,7.29-2.9,1.33.16,2.26.59,1.62,2.26a13.21,13.21,0,0,0-.55,2.88c-.13,1.18-.49,1.53-1.86,1.4-4.23-.39-6.45,1.7-6.57,5.94-.09,2.95-.1,5.9,0,8.84,0,1.61-.37,2.45-2.11,2.19a3.87,3.87,0,0,0-.59,0c-5.33-.09-4.34.62-4.4-4.26-.07-5.31.13-10.62-.08-15.91-.11-2.56.77-3.4,3.12-2.94C540.81,176.82,543.29,175.29,543.38,179Z" transform="translate(-4.1 -4.25)"/><path class="cls-2" d="M766.79,178.79a8.51,8.51,0,0,1,6.85-2.72c1.39.09,2.31.49,1.87,2.36-.54,2.26,0,4.71-4,4.23-3-.36-4.89,2.15-5,5.38-.09,3-.12,6.08,0,9.11.08,1.87-.42,2.58-2.42,2.51-5.86-.21-4.69.66-4.77-4.83s0-10.79,0-16.18c0-1.65.45-2.18,2.14-2.19C765.82,176.42,765.82,176.33,766.79,178.79Z" transform="translate(-4.1 -4.25)"/><path class="cls-4" d="M870.86,199.62c-4.62-.08-4,.62-4-4.11,0-4.34-.67-3.71,4.37-3.73,4.21,0,3.74-.53,3.74,4.1C875,200.24,875.37,199.56,870.86,199.62Z" transform="translate(-4.1 -4.25)"/><path class="cls-5" d="M264.78,59.06H227.62c-4.33,0-5.51-2-3.36-5.74s4.21-7.09,6.23-10.69a6,6,0,0,1,5.72-3.38q29.21,0,58.39,0a6.83,6.83,0,0,1,6.62,4c1.6,3.16,3.28,6.27,4.86,9.43,1.95,3.9.48,6.34-3.85,6.35C289.74,59.07,277.26,59.05,264.78,59.06Z" transform="translate(-4.1 -4.25)"/><path class="cls-5" d="M592.31,64c0-5.51,0-11,0-16.52s2.75-8.14,8.16-8.2q3.69,0,7.38,0c10.83.11,19.4,7.18,20.74,17.92.81,6.48,1.23,13.17-1.85,19.39-3.75,7.61-10,11.7-18.34,12.43a71.7,71.7,0,0,1-8.55.09c-4.6-.14-7.48-3.08-7.54-7.7C592.26,75.56,592.31,69.75,592.31,64Z" transform="translate(-4.1 -4.25)"/><path class="cls-5" d="M379.2,64.15c0-5.51,0-11,0-16.53s2.76-8.34,8.3-8.39c2.66,0,5.31-.07,8,0a20.53,20.53,0,0,1,20.28,20.06c.13,4.11.47,8.27-.41,12.35A21.64,21.64,0,0,1,395.81,89a70.63,70.63,0,0,1-9.43.08c-4.35-.21-7.1-3.23-7.16-7.77C379.14,75.56,379.2,69.85,379.2,64.15Z" transform="translate(-4.1 -4.25)"/><path class="cls-5" d="M847.71,64.85c-.1,2.71.28,5.88-.5,9-2.46,9.81-11.18,15.41-22.65,14.56-12.33-.91-19.3-8.41-19.3-20.76,0-2.66,0-5.32,0-8,.18-11.09,8.24-19.07,19.33-19.06,3,0,6.08-.27,9.09.57a18.86,18.86,0,0,1,14,18C847.74,60.88,847.71,62.66,847.71,64.85Z" transform="translate(-4.1 -4.25)"/><path class="cls-5" d="M695,64.34c.06-3.91-.27-7.84,1.22-11.64a18.84,18.84,0,0,1,17.26-12.11c2.94,0,5.91-.33,8.83.3a18.74,18.74,0,0,1,15.07,16.78,68.93,68.93,0,0,1,0,13.55c-1,9.62-7.82,15.89-17.78,17C708,89.5,699.23,84.74,696,75.44,694.69,71.81,695.05,68.07,695,64.34Z" transform="translate(-4.1 -4.25)"/><path class="cls-6" d="M633.27,189.4c1,.31,2.81-.8,2.76,1.66a4.39,4.39,0,0,1-4.69,4.17c-1.68-.1-3.06-.76-3-2.81S629.9,189.44,633.27,189.4Z" transform="translate(-4.1 -4.25)"/><path class="cls-7" d="M788.65,189.39c1.2.18,2.94-.59,2.79,1.82a4.42,4.42,0,0,1-4.6,4c-1.71-.1-3.27-.88-3.09-2.83C784,189.48,786.44,189.49,788.65,189.39Z" transform="translate(-4.1 -4.25)"/><path class="cls-8" d="M718.94,188.16c-.05,3.44-2.45,6.08-5.5,6s-5.39-2.75-5.37-6.17,2.51-6.11,5.5-6.06S719,184.76,718.94,188.16Z" transform="translate(-4.1 -4.25)"/><path class="cls-9" d="M838.37,185.76a7.11,7.11,0,0,1-1.46,0c-1-.22-2.49.7-2.78-.66s.85-2.29,2-3a4.78,4.78,0,0,1,6.29,1.07c.45.59,1.1,1.26.71,2.09s-1.19.44-1.83.47C840.32,185.8,839.34,185.76,838.37,185.76Z" transform="translate(-4.1 -4.25)"/><path class="cls-10" d="M420.41,185.76a7.9,7.9,0,0,1-1.46,0c-1-.2-2.44.67-2.77-.75-.28-1.19.77-2.17,1.8-2.8a4.38,4.38,0,0,1,4.44-.51c1.36.67,2.89,1.57,2.65,3.15-.28,1.8-2.1.62-3.2.9A5.92,5.92,0,0,1,420.41,185.76Z" transform="translate(-4.1 -4.25)"/><path class="cls-6" d="M521.57,189.36c1.12.27,2.77-.57,2.74,1.63a4.48,4.48,0,0,1-4.68,4.24c-1.67-.09-3.15-.7-3-2.77C516.85,189.17,519.46,189.61,521.57,189.36Z" transform="translate(-4.1 -4.25)"/></svg>