<svg id="Calque_1" data-name="Calque 1" xmlns="http://www.w3.org/2000/svg" viewBox="0 0 439.2 559.68"><defs><style>.cls-1{fill:#643487;}.cls-2{fill:#e9e2ee;}.cls-3{fill:#9a7bb2;}.cls-4{fill:#dcd1e4;}.cls-5{fill:#edb64c;}.cls-6{fill:#f8e5bf;}.cls-7{fill:#efeaf3;}.cls-8{fill:#bba7cb;}.cls-9{fill:#f0ecf3;}.cls-10{fill:#f0c46e;}.cls-11{fill:#c4b1d2;}.cls-12{fill:#b098c3;}.cls-13{fill:#ddd2e5;}.cls-14{fill:#fcf2e1;}.cls-15{fill:#f4d394;}.cls-16{fill:#fcf5e6;}.cls-17{fill:#b8a1c8;}.cls-18{fill:#e8e1ed;}.cls-19{fill:#c5b4d2;}.cls-20{fill:#9777af;}.cls-21{fill:#e1d7e7;}.cls-22{fill:#eaa829;}</style></defs><title>marker</title><path class="cls-1" d="M1.3,475.12c2-12.58,9.71-21.47,19.11-29.21,8.22-6.77,17.54-11.67,27.23-16,16.88-7.46,34.47-12.68,52.43-16.75,6.39-1.45,12.81-2.73,19.24-4A5.93,5.93,0,0,1,125.9,412c2.61,3.83,5.19,7.69,7.82,11.51q36.51,53.26,77,103.59a19.64,19.64,0,0,0,3.9,3.88,9.39,9.39,0,0,0,11.59.12,20,20,0,0,0,4.25-4.21q22.58-28.49,44.19-57.72,20.55-27.93,40-56.65a16.11,16.11,0,0,1,1.76-2.26,3.93,3.93,0,0,1,3.72-1.22c23.23,4.54,46.34,9.49,68.26,18.78a160.23,160.23,0,0,1,29.59,16.24,60,60,0,0,1,13.94,13.08,37,37,0,0,1,7.29,17,1.42,1.42,0,0,1,.16.88v.9c0,.38-.09.8.25,1.11v7.2c-.44.51-.17,1.12-.25,1.68V487c0,5-2.31,9.09-4.79,13.11-4.81,7.77-11.59,13.6-19,18.79-11.42,8-24.13,13.48-37.19,18.15-25.2,9-51.24,14.36-77.71,17.91-9.5,1.27-19,2.5-28.58,3.2-6.28.47-12.57,1-18.89,1.16s-12.77.2-19.16.48H205c-10.77-.26-21.53-.57-32.29-1.38a495.73,495.73,0,0,1-60.09-7.89c-23.8-4.74-47.27-10.78-69.33-21.16C31.26,523.72,20.07,516.57,11,506.57,5.4,500.39,1.56,493.31.85,484.8.88,481.57.64,478.32,1.3,475.12Z" transform="translate(-0.36 -0.4)"/><path class="cls-2" d="M1.29,485.2c-.86-.58,0-1.82-.93-2.4v-5.28c.89-.57.06-1.82.94-2.4C1.3,478.48,1.29,481.84,1.29,485.2Z" transform="translate(-0.36 -0.4)"/><path class="cls-3" d="M218.74,559.66l5.83,0c.11.1.15.19.09.28s-.09.11-.14.11h-5.76c-.15-.08-.2-.18-.16-.27S218.69,559.66,218.74,559.66Z" transform="translate(-0.36 -0.4)"/><path class="cls-4" d="M208.67,559.66a24.82,24.82,0,0,1,4.31,0c.17.08.23.17.18.26s-.11.14-.16.14h-4.32c-.15-.09-.21-.18-.16-.27S208.62,559.66,208.67,559.66Z" transform="translate(-0.36 -0.4)"/><path class="cls-5" d="M224,.4l0,.49a3.41,3.41,0,0,1-3.63.24A.52.52,0,0,1,220.2.4Z" transform="translate(-0.36 -0.4)"/><path class="cls-6" d="M228.34.85a1,1,0,0,1,0-.45h3.84a.51.51,0,0,1-.19.73A3.36,3.36,0,0,1,228.34.85Z" transform="translate(-0.36 -0.4)"/><path class="cls-7" d="M208.67,559.66c0,.14,0,.28,0,.42h-3.84v-.45A17.52,17.52,0,0,1,208.67,559.66Z" transform="translate(-0.36 -0.4)"/><path class="cls-8" d="M224.52,560.08c0-.13,0-.26,0-.39l3.33,0c.14.1.19.2.13.29s-.1.13-.15.13Z" transform="translate(-0.36 -0.4)"/><path class="cls-9" d="M234.12,559.62v.46h-3.36c-.16-.1-.21-.19-.15-.28s.11-.14.16-.14A13.42,13.42,0,0,1,234.12,559.62Z" transform="translate(-0.36 -0.4)"/><path class="cls-10" d="M220.2.4l0,.45a2.2,2.2,0,0,1-2.7.26.51.51,0,0,1-.15-.71Z" transform="translate(-0.36 -0.4)"/><path class="cls-11" d="M213,560.08c0-.13,0-.27,0-.4h2.88c.17.08.23.17.18.26s-.11.14-.16.14Z" transform="translate(-0.36 -0.4)"/><path class="cls-12" d="M215.88,560.08c0-.13,0-.26,0-.4l2.88,0c0,.14,0,.28,0,.42Z" transform="translate(-0.36 -0.4)"/><path class="cls-13" d="M230.77,559.66c0,.14,0,.28,0,.42h-2.88a2,2,0,0,1,0-.42Z" transform="translate(-0.36 -0.4)"/><path class="cls-6" d="M213,.4h2.4a.47.47,0,0,1-.09.67,2.11,2.11,0,0,1-2.22,0A.48.48,0,0,1,213,.4Z" transform="translate(-0.36 -0.4)"/><path class="cls-14" d="M213,.4c0,.14,0,.28,0,.42a1.25,1.25,0,0,1-1.92,0c0-.15,0-.3,0-.45Z" transform="translate(-0.36 -0.4)"/><path class="cls-15" d="M215.37.81a2.83,2.83,0,0,0,0-.41h1.92l0,.43A1.23,1.23,0,0,1,215.37.81Z" transform="translate(-0.36 -0.4)"/><path class="cls-16" d="M232.21.83c0-.14,0-.29,0-.43h1.92V.86A1.25,1.25,0,0,1,232.21.83Z" transform="translate(-0.36 -0.4)"/><path class="cls-17" d="M439.14,485.71a1.4,1.4,0,0,1,.42-1.47v1.44C439.43,485.88,439.3,485.9,439.14,485.71Z" transform="translate(-0.36 -0.4)"/><path class="cls-18" d="M439.15,475.09v-.94a1.88,1.88,0,0,1,.41,0v1C439.41,475.34,439.27,475.33,439.15,475.09Z" transform="translate(-0.36 -0.4)"/><path class="cls-19" d="M439.15,475.09a1.39,1.39,0,0,1,.41,0v1c-.17.23-.3.2-.42-.05Z" transform="translate(-0.36 -0.4)"/><path class="cls-20" d="M439.14,476l.42.05v1A.85.85,0,0,1,439.14,476Z" transform="translate(-0.36 -0.4)"/><path class="cls-21" d="M439.14,485.71l.42,0v1l-.41,0C439.15,486.34,439.15,486,439.14,485.71Z" transform="translate(-0.36 -0.4)"/><path class="cls-22" d="M232.21.83l1.91,0a221.7,221.7,0,0,1,22.07,3A173.59,173.59,0,0,1,311,25.44a191.43,191.43,0,0,1,39.44,31.13,173.94,173.94,0,0,1,41.09,69.84,176.41,176.41,0,0,1,7.57,36.05,145.44,145.44,0,0,1-5.31,55.27,360.11,360.11,0,0,1-16.94,44.81c-12.25,27.52-27,53.71-42.52,79.46A1575.66,1575.66,0,0,1,244,474.84c-4.71,6.26-9.48,12.48-14.25,18.7a19.63,19.63,0,0,1-4.69,4.76,7.87,7.87,0,0,1-9.22,0,17.31,17.31,0,0,1-4.14-4q-16.25-20.66-31.62-42c-21.67-29.94-42.66-60.33-62.34-91.61A875.94,875.94,0,0,1,68.28,272a387.57,387.57,0,0,1-19.66-48.9,158.9,158.9,0,0,1-7.06-35.16,153.84,153.84,0,0,1,11.11-71.58C63.05,90.68,77.78,67.84,97.86,48.63s43.58-32.27,70.13-40a192.26,192.26,0,0,1,34.26-6.82l8.82-.92,1.92,0h2.38l1.92,0,2.88,0,3.84,0c0,.79.1,1.59.1,2.39v73.9c0,2.58,0,2.55-2.71,2.55a79.17,79.17,0,0,0-52.26,19c-13.93,11.66-23.21,26.35-27.13,44.13-5.32,24.07-.28,46.06,14.54,65.65a79.24,79.24,0,0,0,47.84,30.6A75.77,75.77,0,0,0,250,234.93c23.67-9.8,39.89-26.91,47.39-51.5,10.06-33-1.85-68.54-31.2-89a79,79,0,0,0-35.83-13.92c-2-.25-2.07-.29-2.07-2.12q0-38.62,0-77.26c0-.08,0-.16,0-.24Z" transform="translate(-0.36 -0.4)"/></svg>